<svg id="Layer_1" data-name="Layer 1" xmlns="http://www.w3.org/2000/svg" viewBox="0 0 250 250"><defs><style>.cls-1{fill:#37474f;}</style></defs><path class="cls-1" d="M174.82,53.94h-103A12.35,12.35,0,0,0,59.5,66.28V183.45a12.34,12.34,0,0,0,12.34,12.33h103a12.34,12.34,0,0,0,12.34-12.33V66.28A12.35,12.35,0,0,0,174.82,53.94Zm8.79,129.51a8.8,8.8,0,0,1-8.79,8.79h-103a8.8,8.8,0,0,1-8.79-8.79V66.28a8.8,8.8,0,0,1,8.79-8.79h103a8.8,8.8,0,0,1,8.79,8.79Z"/><path class="cls-1" d="M173.21,62H73.45a5.07,5.07,0,0,0-5.07,5.07V114a5.07,5.07,0,0,0,5.07,5.07h99.76a5.07,5.07,0,0,0,5.07-5.07V67.05A5.07,5.07,0,0,0,173.21,62Zm1.53,52a1.52,1.52,0,0,1-1.53,1.52H73.45A1.52,1.52,0,0,1,71.92,114V67.05a1.53,1.53,0,0,1,1.53-1.53h99.76a1.53,1.53,0,0,1,1.53,1.53Z"/><path class="cls-1" d="M90.47,124a15.11,15.11,0,1,0,15.11,15.1A15.13,15.13,0,0,0,90.47,124Zm0,26.66A11.56,11.56,0,1,1,102,139.12,11.57,11.57,0,0,1,90.47,150.68Z"/><path class="cls-1" d="M90.47,157.07a15.11,15.11,0,1,0,15.11,15.11A15.13,15.13,0,0,0,90.47,157.07Zm0,26.67A11.56,11.56,0,1,1,102,172.18,11.57,11.57,0,0,1,90.47,183.74Z"/><path class="cls-1" d="M123.33,124a15.11,15.11,0,1,0,15.11,15.1A15.13,15.13,0,0,0,123.33,124Zm0,26.66a11.56,11.56,0,1,1,11.56-11.56A11.57,11.57,0,0,1,123.33,150.68Z"/><path class="cls-1" d="M123.33,157.07a15.11,15.11,0,1,0,15.11,15.11A15.13,15.13,0,0,0,123.33,157.07Zm0,26.67a11.56,11.56,0,1,1,11.56-11.56A11.57,11.57,0,0,1,123.33,183.74Z"/><path class="cls-1" d="M156.19,124a15.11,15.11,0,1,0,15.11,15.1A15.13,15.13,0,0,0,156.19,124Zm0,26.66a11.56,11.56,0,1,1,11.56-11.56A11.57,11.57,0,0,1,156.19,150.68Z"/><path class="cls-1" d="M156.19,157.07a15.11,15.11,0,1,0,15.11,15.11A15.13,15.13,0,0,0,156.19,157.07Zm0,26.67a11.56,11.56,0,1,1,11.56-11.56A11.57,11.57,0,0,1,156.19,183.74Z"/><path class="cls-1" d="M89.75,103.23H79.25a1.77,1.77,0,0,0,0,3.54h10.5a1.77,1.77,0,0,0,0-3.54Z"/><path class="cls-1" d="M109,103.23H98.5a1.77,1.77,0,0,0,0,3.54H109a1.77,1.77,0,0,0,0-3.54Z"/><path class="cls-1" d="M128.25,103.23H117.76a1.77,1.77,0,1,0,0,3.54h10.49a1.77,1.77,0,1,0,0-3.54Z"/><path class="cls-1" d="M147.51,103.23H137a1.77,1.77,0,1,0,0,3.54h10.5a1.77,1.77,0,1,0,0-3.54Z"/><path class="cls-1" d="M79.13,81.75v-9h9a1.78,1.78,0,1,0,0-3.55H77.36A1.78,1.78,0,0,0,75.58,71V81.75a1.78,1.78,0,0,0,3.55,0Z"/><path class="cls-1" d="M116.15,137.35a1.78,1.78,0,1,0,0,3.55h14.36a1.78,1.78,0,0,0,0-3.55Z"/><path class="cls-1" d="M149,133.57a1.78,1.78,0,0,0,0,3.55h14.36a1.78,1.78,0,0,0,0-3.55Z"/><path class="cls-1" d="M163.37,141.13H149a1.77,1.77,0,0,0,0,3.54h14.36a1.77,1.77,0,0,0,0-3.54Z"/><path class="cls-1" d="M116.15,170.4a1.78,1.78,0,1,0,0,3.55h14.36a1.78,1.78,0,0,0,0-3.55Z"/><path class="cls-1" d="M96.8,165.85a1.76,1.76,0,0,0-2.51,0l-3.82,3.82-3.82-3.82a1.77,1.77,0,0,0-2.51,2.5L88,172.18,84.14,176a1.78,1.78,0,0,0,0,2.51,1.77,1.77,0,0,0,2.51,0l3.82-3.83,3.82,3.83a1.77,1.77,0,0,0,2.51,0,1.78,1.78,0,0,0,0-2.51L93,172.18l3.82-3.83A1.77,1.77,0,0,0,96.8,165.85Z"/><path class="cls-1" d="M92.24,137.35v-5.41a1.77,1.77,0,1,0-3.54,0v5.41H83.29a1.78,1.78,0,0,0,0,3.55H88.7v5.4a1.77,1.77,0,1,0,3.54,0v-5.4h5.41a1.78,1.78,0,1,0,0-3.55Z"/><path class="cls-1" d="M123.33,168.3a2.06,2.06,0,1,0-2.06-2.06A2.05,2.05,0,0,0,123.33,168.3Z"/><path class="cls-1" d="M123.33,176.05a2.06,2.06,0,1,0,2,2.06A2.06,2.06,0,0,0,123.33,176.05Z"/><path class="cls-1" d="M155.55,167.7h4.6a1.77,1.77,0,0,0,0-3.54h-4.6a5.1,5.1,0,0,0-5.09,5.1v5.84a5.1,5.1,0,0,0,5.09,5.1h4.6a1.78,1.78,0,0,0,0-3.55h-4.6A1.55,1.55,0,0,1,154,175.1v-5.84A1.55,1.55,0,0,1,155.55,167.7Z"/><path class="cls-1" d="M159.5,88.24c-3.49-1-3.49-1.73-3.49-2.66,0-1.27,1-2,2.68-2A4.69,4.69,0,0,1,162.24,85l.79.73,2.45-2.6-.81-.73a8,8,0,0,0-4.12-2.16V76H157v4.15a5.56,5.56,0,0,0-4.78,5.44c0,3.45,2.39,4.91,6,6.06,3.28,1,3.61,1.69,3.61,3.08,0,1.77-1.27,2.82-3.4,2.82A5.76,5.76,0,0,1,154.26,96l-.78-.73L151,97.8l.77.74A9,9,0,0,0,157,101v4h3.57v-4.1a6.22,6.22,0,0,0,5-6.18C165.6,90.53,162.59,89.23,159.5,88.24Z"/></svg>