<svg id="Layer_1" data-name="Layer 1" xmlns="http://www.w3.org/2000/svg" viewBox="0 0 825 574"><defs><style>.cls-1{fill:#174975;}.cls-2{fill:#c6dbf6;}.cls-3{fill:#f4769a;}.cls-4{fill:#e4eefa;}.cls-5{fill:#6b78be;}.cls-6{fill:#53668d;}.cls-7{fill:#fbbac2;}.cls-8{fill:#915074;}.cls-9{fill:#8e81b6;}.cls-10{fill:#83aff6;}.cls-11{fill:#73a2e5;}.cls-12{fill:#eaa9b4;}.cls-13{fill:#fff;}.cls-14{fill:#442761;}.cls-15{fill:#29a2a8;}.cls-16{fill:#31b1c0;}.cls-17{fill:#a5b6db;}.cls-18{fill:#fbc330;}</style></defs><path class="cls-1" d="M775.64,273.37H608a4.79,4.79,0,0,1-4.9-4.65V115.14a4.8,4.8,0,0,1,4.9-4.66H775.64a4.8,4.8,0,0,1,4.9,4.66V268.72A4.8,4.8,0,0,1,775.64,273.37Z"/><path class="cls-1" d="M580.14,314.34H147a2.83,2.83,0,0,1-2.89-2.76V22.82A2.83,2.83,0,0,1,147,20.06H580.14a2.84,2.84,0,0,1,2.9,2.76V311.58A2.84,2.84,0,0,1,580.14,314.34Z"/><path class="cls-2" d="M641.17,262.91H617.26a2.63,2.63,0,0,1-2.69-2.55v-6.68a2.63,2.63,0,0,1,2.69-2.56h23.91a2.62,2.62,0,0,1,2.68,2.56v6.68A2.62,2.62,0,0,1,641.17,262.91Z"/><path class="cls-3" d="M641.17,243H617.26a2.63,2.63,0,0,1-2.69-2.55V233.8a2.63,2.63,0,0,1,2.69-2.56h23.91a2.62,2.62,0,0,1,2.68,2.56v6.68A2.62,2.62,0,0,1,641.17,243Z"/><path class="cls-2" d="M641.17,223.15H617.26a2.63,2.63,0,0,1-2.69-2.55v-6.68a2.63,2.63,0,0,1,2.69-2.56h23.91a2.62,2.62,0,0,1,2.68,2.56v6.68A2.62,2.62,0,0,1,641.17,223.15Z"/><path class="cls-2" d="M641.17,203.27H617.26a2.63,2.63,0,0,1-2.69-2.55V194a2.63,2.63,0,0,1,2.69-2.56h23.91a2.62,2.62,0,0,1,2.68,2.56v6.68A2.62,2.62,0,0,1,641.17,203.27Z"/><path class="cls-2" d="M683.22,262.91H659.31a2.63,2.63,0,0,1-2.69-2.55v-6.68a2.63,2.63,0,0,1,2.69-2.56h23.91a2.63,2.63,0,0,1,2.69,2.56v6.68A2.63,2.63,0,0,1,683.22,262.91Z"/><path class="cls-2" d="M683.22,243H659.31a2.63,2.63,0,0,1-2.69-2.55V233.8a2.63,2.63,0,0,1,2.69-2.56h23.91a2.63,2.63,0,0,1,2.69,2.56v6.68A2.63,2.63,0,0,1,683.22,243Z"/><path class="cls-2" d="M683.22,223.15H659.31a2.63,2.63,0,0,1-2.69-2.55v-6.68a2.63,2.63,0,0,1,2.69-2.56h23.91a2.63,2.63,0,0,1,2.69,2.56v6.68A2.63,2.63,0,0,1,683.22,223.15Z"/><path class="cls-4" d="M725.06,262.91H701.15a2.62,2.62,0,0,1-2.68-2.55v-6.68a2.62,2.62,0,0,1,2.68-2.56h23.91a2.63,2.63,0,0,1,2.69,2.56v6.68A2.63,2.63,0,0,1,725.06,262.91Z"/><path class="cls-2" d="M725.06,243H701.15a2.62,2.62,0,0,1-2.68-2.55V233.8a2.62,2.62,0,0,1,2.68-2.56h23.91a2.63,2.63,0,0,1,2.69,2.56v6.68A2.63,2.63,0,0,1,725.06,243Z"/><path class="cls-2" d="M725.06,223.15H701.15a2.62,2.62,0,0,1-2.68-2.55v-6.68a2.62,2.62,0,0,1,2.68-2.56h23.91a2.63,2.63,0,0,1,2.69,2.56v6.68A2.63,2.63,0,0,1,725.06,223.15Z"/><path class="cls-2" d="M725.06,203.27H701.15a2.62,2.62,0,0,1-2.68-2.55V194a2.62,2.62,0,0,1,2.68-2.56h23.91a2.63,2.63,0,0,1,2.69,2.56v6.68A2.63,2.63,0,0,1,725.06,203.27Z"/><path class="cls-2" d="M767.12,262.91H743.2a2.63,2.63,0,0,1-2.68-2.55v-6.68a2.63,2.63,0,0,1,2.68-2.56h23.92a2.63,2.63,0,0,1,2.68,2.56v6.68A2.63,2.63,0,0,1,767.12,262.91Z"/><path class="cls-5" d="M767.12,243H743.2a2.63,2.63,0,0,1-2.68-2.55V233.8a2.63,2.63,0,0,1,2.68-2.56h23.92a2.63,2.63,0,0,1,2.68,2.56v6.68A2.63,2.63,0,0,1,767.12,243Z"/><path class="cls-4" d="M384.43,300.26H163.66a2.85,2.85,0,0,1-2.91-2.76V210.87a2.85,2.85,0,0,1,2.91-2.77H384.43a2.85,2.85,0,0,1,2.91,2.77V297.5A2.85,2.85,0,0,1,384.43,300.26Z"/><path class="cls-4" d="M567.43,300.26H403.88a1.07,1.07,0,0,1-1.1-1.05v-16a1.08,1.08,0,0,1,1.1-1.05H567.43a1.09,1.09,0,0,1,1.1,1.05v16A1.08,1.08,0,0,1,567.43,300.26Z"/><path class="cls-4" d="M449.71,255.92H406.08a3.23,3.23,0,0,1-3.3-3.14V211.25a3.24,3.24,0,0,1,3.3-3.15h43.63a3.24,3.24,0,0,1,3.31,3.15v41.53A3.24,3.24,0,0,1,449.71,255.92Z"/><path class="cls-6" d="M780.54,132.44H603.09V115a4.62,4.62,0,0,1,4.71-4.48h168a4.65,4.65,0,0,1,4.74,4.51Z"/><path class="cls-7" d="M691,215.48s-1.7,13.49,0,19.72,6,6.69,6,6.69l.64,5.77s12-3.18,12.37-9.44S706.16,215.36,691,215.48Z"/><path class="cls-8" d="M701.27,492.8s5.23,7.93,2.8,14.61H661.61s-.35-5.07,4.61-6.33,7.29.68,10.12-1.44,9.21-9.06,9.21-9.06Z"/><path class="cls-8" d="M750.58,493.48s3.68,5.54,2,13.93H724.86s-1.74-5.88,2.75-8S732.35,499,735,497s3.74-7.68,3.74-7.68Z"/><path class="cls-9" d="M683.58,351.5s-5.86,21.27-1.75,35.92,8,20.91,7.39,24.42-2.26,10.36-.82,15-2.06,6.65-2.26,16.41,3.08,18,1.64,25.4-3.69,11.92-4.51,17.19,0,10,9.23,9.38,12.32.19,12.52-6.45,3.29-22.27,3.08-33,4.11-16.8,3.49-30.28-.08-18.56.06-26.57,2.4-20.71,2.4-20.71,6,10.16,8.21,20.12,1,15.83,3.9,29.11,3.49,10.94,6.16,20.32,2,19.53,3.9,23,3.08,4.69,2.46,11.33-6.16,8.4,1.85,10.35,11.9,4.69,13.34-3.51,2.67-14.85.21-30.67,3.07-17-2.26-29.11-10.47-33.41-8-44.15-1.23-30.47-5.74-35.75S683.58,351.5,683.58,351.5Z"/><path class="cls-8" d="M691.74,208.1a9.63,9.63,0,0,0-2.36,9.44c1.18,4.47,2.88,7.23,8.75,7.83,1.9,1.55,1.09,5.33-2.79,5.84.09,2.24.18,4,2.17,4.55s3.7,4.81,3.7,4.81H718.8s-2-6.17-.88-8.93,4.7-5.41,3.7-9.88-1.89-7.31-6-10.31-2.35-5-5.42-6.54S695.73,204.41,691.74,208.1Z"/><path class="cls-10" d="M739.18,298.07c-2.48,4.42-1.83,40.64,0,49.76-3.39,3.82-15.91,7.2-30.59,6.76a126.61,126.61,0,0,1-25-3.09s1.39-16.76,1.08-25.59-1.08-21.76-1.08-21.76l-5.72-14.71s.31,2.79-.77-6.77-2.32-21.18.92-25.15,6-2.94,12.67-6.47,8.81-11.91,12.37-12.35,12.5-1.6,17.54,2.7,7,8,10.52,9.24,12.6,7.48,15.64,14.18,12.84,31.56,12.06,44.19c-9.48-.32-11-.74-15.17,1.7C740.85,303.38,739.18,298.07,739.18,298.07Z"/><path class="cls-1" d="M812.82,507.41H19.49s52.33,35.85,118.27,36.51,98.39-23.23,142.35-18.26,70.13,29.88,147.58,27.89,113.05-28.1,162.24-23S717.5,562.88,812.82,507.41Z"/><path class="cls-11" d="M739.18,298.07s1.73-14.4,4.67-15.8,1.33,9.92,0,13.48-2.72,8.11-2.72,8.11Z"/><path class="cls-7" d="M52,442.33l-2.92,8a5.56,5.56,0,0,1,5.39-.52c2.74,1.39,2.55,3.47,2.55,3.47L61.66,445Z"/><path class="cls-7" d="M138.05,478.17l.13,16.67s2.51-2.27,8-1.07c.63-5.5,1.17-16.24,1.17-16.24Z"/><path class="cls-7" d="M157.56,228.11s8.74,8.73,10.6,12.38,2,6.65,0,8.94a11.1,11.1,0,0,1-3.39,2.91l.33,8.53s3.34,2.5,4.77,3.43c3.15,2-.73,10.72-3.35,13.42S151,286.46,151,286.46,147.61,234.66,157.56,228.11Z"/><path class="cls-5" d="M166.08,336.35s-4.6,11.59-5,21.84-.39,39.9-8.85,59.48c-.77,17.2,3.65,26.32,1.15,41.5s-5,20.1-5,20.1a14.7,14.7,0,0,1-5.72,1.2,18.4,18.4,0,0,1-6.14-1.2s-.83-18-.83-28.29,1.73-17.38,1.15-23.61-2.49-11.52-1.15-20.31-9.42-39.89-9.42-39.89-9.8,17.94-20.57,27.45S90,405.6,87.06,412.19s-18.84,30.74-26.53,35.49a13.49,13.49,0,0,1-10.38-5.48s5.58-12.63,11-21.78,17.49-19.58,20.38-24.7,28.26-56.36,28.26-56.36,5.88-10.62,11.4-12.81S145,338.94,166.08,336.35Z"/><path class="cls-7" d="M95.21,352a10.09,10.09,0,0,1-1.83,6.36c-2.24,3.45-4.06,5.67-3.11,10.27s1.3,8.3,3.8,6.58,9.41-22,9.41-22Z"/><path class="cls-12" d="M679.57,303.4s-3.48,5.19,2.7,10.94,14.15,13,18,18,9,10.48,12.7,13.26,14.12,8.49,19.51,7.95,8.6-4.13,7.92-6.7-7-8-13.39-7.35-6.63-.75-10.78-5.56a99.35,99.35,0,0,1-9.55-13.58c-2.36-3.85-13.82-15.18-14-18.39S679.57,303.4,679.57,303.4Z"/><path class="cls-4" d="M384.43,194.54H163a2.85,2.85,0,0,1-2.91-2.76V37.8A2.85,2.85,0,0,1,163,35h221.4a2.85,2.85,0,0,1,2.91,2.77v154A2.85,2.85,0,0,1,384.43,194.54Z"/><path class="cls-4" d="M566.82,110.48H404.48a1.66,1.66,0,0,1-1.7-1.62V36.74a1.67,1.67,0,0,1,1.7-1.63H566.82a1.67,1.67,0,0,1,1.71,1.63v72.12A1.67,1.67,0,0,1,566.82,110.48Z"/><path class="cls-13" d="M217,171.55a1.18,1.18,0,0,1-1.21-1.15V117.57a1.21,1.21,0,0,1,2.42,0V170.4A1.18,1.18,0,0,1,217,171.55Z"/><path class="cls-13" d="M198,171.55a1.18,1.18,0,0,1-1.21-1.15V117.57a1.21,1.21,0,0,1,2.42,0V170.4A1.18,1.18,0,0,1,198,171.55Z"/><path class="cls-13" d="M179,171.55a1.19,1.19,0,0,1-1.21-1.15V117.57a1.22,1.22,0,0,1,2.43,0V170.4A1.19,1.19,0,0,1,179,171.55Z"/><path class="cls-13" d="M236,171.55a1.19,1.19,0,0,1-1.21-1.15V117.57a1.22,1.22,0,0,1,2.43,0V170.4A1.19,1.19,0,0,1,236,171.55Z"/><path class="cls-13" d="M255,171.55a1.18,1.18,0,0,1-1.21-1.15V117.57a1.21,1.21,0,0,1,2.42,0V170.4A1.18,1.18,0,0,1,255,171.55Z"/><path class="cls-13" d="M273.94,171.55a1.18,1.18,0,0,1-1.21-1.15V117.57a1.21,1.21,0,0,1,2.42,0V170.4A1.18,1.18,0,0,1,273.94,171.55Z"/><path class="cls-13" d="M292.92,171.55a1.19,1.19,0,0,1-1.21-1.15V117.57a1.22,1.22,0,0,1,2.43,0V170.4A1.19,1.19,0,0,1,292.92,171.55Z"/><path class="cls-10" d="M271.89,283.93h-89.6a3.15,3.15,0,0,1-3.22-3.06V228.29a3.15,3.15,0,0,1,3.22-3h89.6a3.14,3.14,0,0,1,3.21,3v52.58A3.15,3.15,0,0,1,271.89,283.93Z"/><path class="cls-13" d="M311.91,171.55a1.18,1.18,0,0,1-1.21-1.15V117.57a1.21,1.21,0,0,1,2.42,0V170.4A1.18,1.18,0,0,1,311.91,171.55Z"/><path class="cls-13" d="M330.89,171.55a1.18,1.18,0,0,1-1.21-1.15V117.57a1.21,1.21,0,0,1,2.42,0V170.4A1.18,1.18,0,0,1,330.89,171.55Z"/><path class="cls-13" d="M349.87,171.55a1.19,1.19,0,0,1-1.21-1.15V117.57a1.22,1.22,0,0,1,2.43,0V170.4A1.19,1.19,0,0,1,349.87,171.55Z"/><path class="cls-13" d="M368.86,171.55a1.18,1.18,0,0,1-1.21-1.15V117.57a1.21,1.21,0,0,1,2.42,0V170.4A1.18,1.18,0,0,1,368.86,171.55Z"/><path class="cls-5" d="M191.06,182.45s-7.44-9.43-5.31-11.79,9.56,11.79,9.56,11.79Z"/><path class="cls-7" d="M744.92,312.84s-4.06,8.39-8,14.71-8.43,11.82-11.55,14.27-6.95,7.13-6.64,11.88,2.11,7.21,5,6.91,6.4.15,6.71-4.83,2.81-9.43,6.4-10.69,6.71-4.07,9.45-8.35,11.7-18.85,12.09-24.34S749.29,309.28,744.92,312.84Z"/><path class="cls-3" d="M132.59,270.58s-12.09,4.29-14.34,16.71-3.55,25.92-6.61,29.91S95.37,346.64,95.21,352a48.06,48.06,0,0,1,8.22,3.84s6.28-15,10.47-19.63,19-33,19.49-41.4c-.8,10.88-5.15,27.45-12.24,31.74,10.95,6,33,13.49,43.82,12,4.51-8.43,8.86-21,11.12-27.45s5-8.13,6.76-19.63,2.42-16.56,2.42-16.56,10.47-15.33,15-31.28,7.84-31.74,4-46c-9,.3-9.64,0-9.64,0s-.32,13.95-2.57,23.31-5.86,28.62-22.78,43C166.85,273.45,152.08,281.16,132.59,270.58Z"/><path class="cls-14" d="M157.93,226.9c2.53,1.81,4.1,3.59,3.61,13.11-3,1.09-4,3.22-3.12,5s4.21.65,4.21.65.94,4.24-.86,6.77a10.6,10.6,0,0,0-1.37,8.82c.77,3.1,3.85,7.83,1.88,10.93s-6.77,3.43-7.72,6.7,1.72,10.2-2.14,14.12-8,1.38-11.32,1.38-5.66,3.84-9.17,3.1-2.58-4.89-5.41-8.16-.42-4.4,1.46-9.46.69-10.21-.43-15.59,3.09-4.9,5.66-14.61.83-14.76,5.49-19.51C144.08,224.7,153.36,223.64,157.93,226.9Z"/><path class="cls-11" d="M694.27,289.74a77.46,77.46,0,0,0-1.82-11.1c-1.38-5.53-.89-12.65,1.82-10.49S698,289.6,696,291.39,694.27,289.74,694.27,289.74Z"/><path class="cls-3" d="M186.64,173.31a1.21,1.21,0,0,1-.78-.28,1.11,1.11,0,0,1-.15-1.62L221.44,131a1.25,1.25,0,0,1,1.71-.14l24.69,20,42.09-44a1.27,1.27,0,0,1,1.69-.1l23.18,18.84,45.66-49.8L353,76.86a1.21,1.21,0,0,1-1.38-1,1.15,1.15,0,0,1,1-1.31L363.37,73a1.23,1.23,0,0,1,1.25.58,1.13,1.13,0,0,1-.15,1.32l-48.63,53a1.26,1.26,0,0,1-1.7.12l-23.2-18.86-42.09,44a1.27,1.27,0,0,1-1.68.1l-24.66-20L187.57,172.9A1.25,1.25,0,0,1,186.64,173.31Z"/><path class="cls-2" d="M685.83,290.19c-5.8-.39-8.21-2.66-9.53.26s.08,11.19,0,12.45,5.3,1.9,10.27,1.5,9.6.47,9.36-3.31-1.08-4.18-.42-6.93,1-4.26-1.24-4.42S691.63,290.58,685.83,290.19Z"/><path class="cls-2" d="M749.37,301c-5.53.85-8.25-.58-8.9,2.17s2.36,9.49,2.53,10.58,5.37.53,10-.82,9.12-1.56,8.11-4.72-1.86-3.34-1.8-5.82.07-3.82-2.07-3.49S754.89,300.16,749.37,301Z"/><path class="cls-7" d="M194.61,197.59s.42-5-1.55-8.78-5.35-6.43-3.62-8.45,5.66-2.77,7.87-1.42,2.67,4.79,3.38,7.63,3.56,11,3.56,11A11.51,11.51,0,0,1,194.61,197.59Z"/><path class="cls-8" d="M49.06,450.32l-2.52,4.15a6.45,6.45,0,0,0-3.78,3.6c-1.17,2.82-1.17,3.85-2.88,5.74S36.55,470,38,473.14s4.68,4.12,6.75,2.92,5.22-5.74,6.3-8.74.9-4.88,2.34-6.68S57,453.27,57,453.27s.4-3.1-3.48-3.82S49.06,450.32,49.06,450.32Z"/><path class="cls-8" d="M138.13,494.84s-1.71,4.52,1.28,6.44,2.28,6.13,4.38,6.13H154.7s.82-2.7-2.58-4.32-5.27-8.8-5.91-9.32S140.23,491.74,138.13,494.84Z"/><path class="cls-4" d="M731.61,76a2.84,2.84,0,0,1-2.91-2.77V51.39a2.91,2.91,0,0,1,5.82,0V73.23A2.84,2.84,0,0,1,731.61,76Z"/><path class="cls-4" d="M743.09,65.08h-23a2.77,2.77,0,1,1,0-5.54h23a2.77,2.77,0,1,1,0,5.54Z"/><path class="cls-4" d="M27.2,351.39a2.84,2.84,0,0,1-2.91-2.76V326.78a2.91,2.91,0,0,1,5.82,0v21.85A2.84,2.84,0,0,1,27.2,351.39Z"/><path class="cls-4" d="M38.68,340.47h-23a2.77,2.77,0,1,1,0-5.54h23a2.77,2.77,0,1,1,0,5.54Z"/><ellipse class="cls-13" cx="616.27" cy="121.46" rx="4.09" ry="3.89"/><ellipse class="cls-13" cx="629.99" cy="121.46" rx="4.09" ry="3.89"/><ellipse class="cls-13" cx="643.71" cy="121.46" rx="4.09" ry="3.89"/><path class="cls-6" d="M575.88,405H249.67a6.83,6.83,0,1,1,0-13.64H575.88a6.83,6.83,0,1,1,0,13.64Z"/><rect class="cls-6" x="287.7" y="405" width="11.63" height="102.41"/><rect class="cls-6" x="526.13" y="405" width="11.63" height="102.41"/><path class="cls-15" d="M592.8,507.41S578,497.06,577.35,483.2s3.31-27.95,3.31-27.95,15.23,12.4,16.55,25S592.8,507.41,592.8,507.41Z"/><path class="cls-16" d="M592.8,507.41s-9.19-26-1.15-44.54,17-28.11,17-28.11,9.35,23.13,4.67,39.32S592.8,507.41,592.8,507.41Z"/><path class="cls-15" d="M245.07,507.41s8.17-5.72,8.53-13.38a55.25,55.25,0,0,0-1.83-15.43s-8.41,6.85-9.14,13.81S245.07,507.41,245.07,507.41Z"/><path class="cls-16" d="M245.07,507.41s5.07-14.38.63-24.6-9.4-15.53-9.4-15.53-5.16,12.77-2.58,21.72S245.07,507.41,245.07,507.41Z"/><path class="cls-6" d="M371,391.36H310.12a2.44,2.44,0,0,1-2.5-2.37V339.42a2.44,2.44,0,0,1,2.5-2.38H371a2.44,2.44,0,0,1,2.5,2.38V389A2.44,2.44,0,0,1,371,391.36Z"/><rect class="cls-4" x="328.62" y="337.04" width="1.94" height="54.33"/><rect class="cls-4" x="350.59" y="337.04" width="1.94" height="54.33"/><path class="cls-4" d="M318.75,366.51H318a2.85,2.85,0,0,1-2.91-2.77V346.62a2.85,2.85,0,0,1,2.91-2.77h.77a2.85,2.85,0,0,1,2.91,2.77v17.12A2.85,2.85,0,0,1,318.75,366.51Z"/><path class="cls-4" d="M363.39,366.51h-.77a2.85,2.85,0,0,1-2.91-2.77V346.62a2.85,2.85,0,0,1,2.91-2.77h.77a2.85,2.85,0,0,1,2.91,2.77v17.12A2.85,2.85,0,0,1,363.39,366.51Z"/><path class="cls-4" d="M341,366.51h-.77a2.85,2.85,0,0,1-2.91-2.77V346.62a2.85,2.85,0,0,1,2.91-2.77H341a2.85,2.85,0,0,1,2.91,2.77v17.12A2.85,2.85,0,0,1,341,366.51Z"/><path class="cls-3" d="M659.28,99.08H544.07a2.85,2.85,0,0,1-2.9-2.77V46.82a2.84,2.84,0,0,1,2.9-2.76H659.28a2.85,2.85,0,0,1,2.91,2.76V96.31A2.85,2.85,0,0,1,659.28,99.08Z"/><path class="cls-13" d="M655.31,79.29V63.84A21.58,21.58,0,0,1,641.4,50.53H562A21.39,21.39,0,0,1,548.45,63.7V79.43A21.81,21.81,0,0,1,562,92.51H641.4A21.45,21.45,0,0,1,655.31,79.29Z"/><path class="cls-3" d="M562,50.53H550.84a2.37,2.37,0,0,0-2.39,2.31V63.7A21.39,21.39,0,0,0,562,50.53Z"/><path class="cls-3" d="M548.45,79.43V90.3a2.29,2.29,0,0,0,2.39,2.21H562A21.81,21.81,0,0,0,548.45,79.43Z"/><path class="cls-3" d="M655.31,63.84v-11A2.34,2.34,0,0,0,653,50.53H641.4A21.58,21.58,0,0,0,655.31,63.84Z"/><path class="cls-3" d="M655.31,90.3v-11A21.45,21.45,0,0,0,641.4,92.51H653A2.26,2.26,0,0,0,655.31,90.3Z"/><path class="cls-17" d="M765.18,152.92H715.74a1.16,1.16,0,1,1,0-2.31h49.44a1.16,1.16,0,1,1,0,2.31Z"/><path class="cls-17" d="M765.18,163H715.74a1.16,1.16,0,1,1,0-2.31h49.44a1.16,1.16,0,1,1,0,2.31Z"/><path class="cls-17" d="M651.74,152.92H616.21a1.16,1.16,0,1,1,0-2.31h35.53a1.16,1.16,0,1,1,0,2.31Z"/><path class="cls-17" d="M651.74,163H616.21a1.16,1.16,0,1,1,0-2.31h35.53a1.16,1.16,0,1,1,0,2.31Z"/><path class="cls-17" d="M518.6,59.62H483.07a1.16,1.16,0,1,1,0-2.31H518.6a1.16,1.16,0,1,1,0,2.31Z"/><path class="cls-17" d="M508.64,69.68H483.07a1.16,1.16,0,1,1,0-2.31h25.57a1.16,1.16,0,1,1,0,2.31Z"/><path class="cls-17" d="M518.6,79.79H483.07a1.16,1.16,0,1,1,0-2.31H518.6a1.16,1.16,0,1,1,0,2.31Z"/><path class="cls-17" d="M495.86,89.85H483.07a1.16,1.16,0,1,1,0-2.31h12.79a1.16,1.16,0,1,1,0,2.31Z"/><path class="cls-17" d="M368.86,229.07H295.53a1.16,1.16,0,1,1,0-2.31h73.33a1.16,1.16,0,1,1,0,2.31Z"/><path class="cls-17" d="M348.3,239.13H295.53a1.16,1.16,0,1,1,0-2.31H348.3a1.16,1.16,0,1,1,0,2.31Z"/><path class="cls-17" d="M368.86,249.24h-2.43a1.16,1.16,0,1,1,0-2.31h2.43a1.16,1.16,0,1,1,0,2.31Zm-9.69,0h-2.43a1.16,1.16,0,1,1,0-2.31h2.43a1.16,1.16,0,1,1,0,2.31Zm-9.7,0h-2.42a1.16,1.16,0,1,1,0-2.31h2.42a1.16,1.16,0,1,1,0,2.31Zm-9.69,0h-2.42a1.16,1.16,0,1,1,0-2.31h2.42a1.16,1.16,0,1,1,0,2.31Zm-9.69,0h-2.43a1.16,1.16,0,1,1,0-2.31h2.43a1.16,1.16,0,1,1,0,2.31Zm-9.69,0H318a1.16,1.16,0,1,1,0-2.31h2.43a1.16,1.16,0,1,1,0,2.31Zm-9.7,0h-2.42a1.16,1.16,0,1,1,0-2.31h2.42a1.16,1.16,0,1,1,0,2.31Zm-9.69,0h-2.42a1.16,1.16,0,1,1,0-2.31H301a1.16,1.16,0,1,1,0,2.31Z"/><path class="cls-17" d="M321.91,259.3H295.53a1.16,1.16,0,1,1,0-2.31h26.38a1.16,1.16,0,1,1,0,2.31Z"/><path class="cls-17" d="M567,216.92H470.85a1.16,1.16,0,1,1,0-2.31H567a1.16,1.16,0,1,1,0,2.31Z"/><path class="cls-17" d="M538.56,227h-1.21a1.16,1.16,0,1,1,0-2.31h1.21a1.16,1.16,0,1,1,0,2.31Z"/><path class="cls-17" d="M530.1,227h-2.42a1.16,1.16,0,1,1,0-2.31h2.42a1.16,1.16,0,1,1,0,2.31Zm-9.68,0H518a1.16,1.16,0,1,1,0-2.31h2.41a1.16,1.16,0,1,1,0,2.31Zm-9.67,0h-2.42a1.16,1.16,0,1,1,0-2.31h2.42a1.16,1.16,0,1,1,0,2.31Zm-9.67,0h-2.42a1.16,1.16,0,1,1,0-2.31h2.42a1.16,1.16,0,1,1,0,2.31Zm-9.67,0H489a1.16,1.16,0,1,1,0-2.31h2.42a1.16,1.16,0,1,1,0,2.31Zm-9.67,0h-2.42a1.16,1.16,0,1,1,0-2.31h2.42a1.16,1.16,0,1,1,0,2.31Z"/><path class="cls-17" d="M472.07,227h-1.22a1.16,1.16,0,1,1,0-2.31h1.22a1.16,1.16,0,1,1,0,2.31Z"/><path class="cls-17" d="M567,237.09H470.85a1.16,1.16,0,1,1,0-2.31H567a1.16,1.16,0,1,1,0,2.31Z"/><path class="cls-17" d="M504.71,247.15H503.5a1.16,1.16,0,1,1,0-2.31h1.21a1.16,1.16,0,1,1,0,2.31Z"/><path class="cls-17" d="M497.21,247.15h-2.1a1.16,1.16,0,1,1,0-2.31h2.1a1.16,1.16,0,1,1,0,2.31Zm-8.38,0h-2.1a1.16,1.16,0,1,1,0-2.31h2.1a1.16,1.16,0,1,1,0,2.31Zm-8.38,0h-2.1a1.16,1.16,0,1,1,0-2.31h2.1a1.16,1.16,0,1,1,0,2.31Z"/><path class="cls-17" d="M472.07,247.15h-1.22a1.16,1.16,0,1,1,0-2.31h1.22a1.16,1.16,0,1,1,0,2.31Z"/><path class="cls-17" d="M496.47,151.33h-23a1.16,1.16,0,1,1,0-2.31h23a1.16,1.16,0,1,1,0,2.31Z"/><path class="cls-17" d="M496.47,161.39h-23a1.16,1.16,0,1,1,0-2.31h23a1.16,1.16,0,1,1,0,2.31Z"/><path class="cls-17" d="M202,59.32H179A1.16,1.16,0,1,1,179,57h23a1.16,1.16,0,1,1,0,2.31Z"/><path class="cls-17" d="M298.33,59.32h-23a1.16,1.16,0,1,1,0-2.31h23a1.16,1.16,0,1,1,0,2.31Z"/><path class="cls-17" d="M202,69.38H179a1.16,1.16,0,1,1,0-2.31h23a1.16,1.16,0,1,1,0,2.31Z"/><path class="cls-17" d="M223.05,89.66H179a1.15,1.15,0,1,1,0-2.3h44a1.15,1.15,0,1,1,0,2.3Z"/><path class="cls-17" d="M208.68,99.72H179a1.15,1.15,0,1,1,0-2.3h29.66a1.15,1.15,0,1,1,0,2.3Z"/><path class="cls-17" d="M317.61,79.37h-44a1.16,1.16,0,1,1,0-2.31h44a1.16,1.16,0,1,1,0,2.31Z"/><path class="cls-17" d="M303.23,89.43H273.58a1.16,1.16,0,1,1,0-2.31h29.65a1.16,1.16,0,1,1,0,2.31Z"/><path class="cls-17" d="M765.18,173.31H731.61a1.15,1.15,0,1,1,0-2.3h33.57a1.15,1.15,0,1,1,0,2.3Z"/><path class="cls-4" d="M445.22,162.72A15.65,15.65,0,0,1,431.87,170c-8.56,0-15.5-6.6-15.5-14.75s6.94-14.75,15.5-14.75h0v-13h0c-16.12,0-29.19,12.44-29.19,27.79S415.75,183,431.87,183A29.49,29.49,0,0,0,457,169.34Z"/><path class="cls-3" d="M447.37,155.22a14.12,14.12,0,0,1-2.15,7.5l11.8,6.62a26.65,26.65,0,0,0,4.05-14.12c0-15.34-13.06-27.77-29.17-27.79v13C440.45,140.48,447.37,147.08,447.37,155.22Z"/><path class="cls-4" d="M522.33,155.22c0-8.14,6.92-14.73,15.46-14.75v-13c-16.1,0-29.15,12.46-29.15,27.79a27.37,27.37,0,0,0,12.06,22.5l7.87-10.67A14.53,14.53,0,0,1,522.33,155.22Z"/><path class="cls-18" d="M567,155.22c0-15.35-13.07-27.79-29.19-27.79h-.05v13h.05c8.56,0,15.5,6.6,15.5,14.75S546.4,170,537.84,170a15.92,15.92,0,0,1-9.27-2.92l-7.87,10.67A30.1,30.1,0,0,0,537.84,183C554,183,567,170.57,567,155.22Z"/><path class="cls-3" d="M602.23,85.18V81.74a10.77,10.77,0,0,1-5.47-1.5l.86-2.28a9.87,9.87,0,0,0,5.15,1.46c2.54,0,4.26-1.39,4.26-3.33s-1.4-3-4-4c-3.64-1.37-5.9-2.93-5.9-5.89s2.11-5,5.4-5.49V57.23h2.22v3.3a9.91,9.91,0,0,1,4.65,1.19L608.46,64A9,9,0,0,0,604,62.81c-2.75,0-3.79,1.57-3.79,2.93,0,1.77,1.32,2.65,4.43,3.88,3.69,1.43,5.55,3.2,5.55,6.23,0,2.69-2,5.21-5.65,5.79v3.54Z"/><ellipse class="cls-3" cx="63.69" cy="183.01" rx="34.72" ry="33.05"/><ellipse class="cls-13" cx="63.69" cy="183.01" rx="26.19" ry="24.93"/><path class="cls-3" d="M62.73,196.49v-3.44a10.67,10.67,0,0,1-5.47-1.5l.86-2.28a9.81,9.81,0,0,0,5.15,1.47c2.54,0,4.25-1.4,4.25-3.34s-1.39-3-4-4.05c-3.65-1.36-5.9-2.93-5.9-5.89s2.11-5,5.4-5.48v-3.44H65.2v3.3A9.91,9.91,0,0,1,69.85,173L69,175.28a9,9,0,0,0-4.51-1.16c-2.76,0-3.79,1.57-3.79,2.93,0,1.77,1.32,2.66,4.43,3.88,3.69,1.43,5.55,3.2,5.55,6.23,0,2.69-2,5.21-5.66,5.79v3.54Z"/><path class="cls-13" d="M224.79,268v-3.44a10.74,10.74,0,0,1-5.47-1.5l.85-2.28a9.88,9.88,0,0,0,5.16,1.46c2.54,0,4.25-1.39,4.25-3.33s-1.39-3-4-4.05c-3.65-1.37-5.9-2.93-5.9-5.89s2.11-5,5.4-5.49v-3.43h2.22v3.3a10,10,0,0,1,4.65,1.19l-.9,2.25a8.91,8.91,0,0,0-4.5-1.16c-2.76,0-3.8,1.57-3.8,2.93,0,1.77,1.33,2.65,4.44,3.88,3.69,1.43,5.54,3.2,5.54,6.23,0,2.69-2,5.21-5.65,5.79V268Z"/><ellipse class="cls-13" cx="441.87" cy="73.76" rx="24.1" ry="22.94"/><path class="cls-3" d="M441,86.17V83a9.87,9.87,0,0,1-5-1.38l.79-2.1a9.14,9.14,0,0,0,4.74,1.35c2.34,0,3.92-1.28,3.92-3.07s-1.28-2.79-3.72-3.73c-3.36-1.25-5.43-2.69-5.43-5.42s1.94-4.57,5-5V60.44h2v3a9,9,0,0,1,4.28,1.1l-.82,2.06a8.33,8.33,0,0,0-4.15-1.06c-2.54,0-3.49,1.44-3.49,2.69,0,1.63,1.22,2.45,4.08,3.58,3.39,1.31,5.11,2.94,5.11,5.73,0,2.48-1.82,4.79-5.21,5.33v3.26Z"/><path class="cls-3" d="M363.14,84.67h-.05a1.17,1.17,0,0,1-1.16-1.2l.42-9.37a1.18,1.18,0,0,1,1.26-1.1,1.17,1.17,0,0,1,1.16,1.2l-.42,9.37A1.19,1.19,0,0,1,363.14,84.67Z"/><ellipse class="cls-3" cx="257.65" cy="58.16" rx="5.78" ry="5.5"/><ellipse class="cls-5" cx="257.65" cy="77.75" rx="5.78" ry="5.5"/><ellipse class="cls-2" cx="427.81" cy="224.07" rx="7.16" ry="6.81"/><path class="cls-2" d="M417.4,247.9a2.57,2.57,0,0,1-2.59-3.17,13.74,13.74,0,0,1,26.13-.44,2.84,2.84,0,0,1-2.84,3.61Z"/><rect class="cls-2" x="546.2" y="282.15" width="2.42" height="18.11"/><rect class="cls-2" x="525.08" y="282.15" width="2.42" height="18.11"/><rect class="cls-2" x="503.96" y="282.15" width="2.42" height="18.11"/><rect class="cls-2" x="482.84" y="282.15" width="2.42" height="18.11"/><rect class="cls-2" x="461.72" y="282.15" width="2.42" height="18.11"/><path class="cls-4" d="M625.9,360.12c-7.34,0-13.31-5.69-13.31-12.68s6-12.67,13.31-12.67,13.32,5.68,13.32,12.67S633.25,360.12,625.9,360.12Zm0-19.82a7.15,7.15,0,1,0,7.5,7.14A7.34,7.34,0,0,0,625.9,340.3Z"/></svg>