<svg id="Layer_1" data-name="Layer 1" xmlns="http://www.w3.org/2000/svg" viewBox="0 0 825 531"><defs><style>.cls-1{fill:#53668d;}.cls-2{fill:#174975;}.cls-3{fill:#e4eefa;}.cls-4{fill:#bacce5;}.cls-5{fill:#c6dbf6;}.cls-6{fill:#b3cbe5;}.cls-7{fill:#83aff6;}.cls-8{fill:#f4769a;}.cls-9{fill:#a5b6db;}.cls-10{fill:#fff;}.cls-11{fill:#6b78be;}.cls-12{fill:#d7e3f4;}.cls-13,.cls-14,.cls-15{fill:none;stroke:#a5b6db;stroke-miterlimit:10;stroke-width:2px;}.cls-14{stroke-dasharray:7.91 7.91;}.cls-15{stroke-dasharray:7.84 7.84;}</style></defs><rect class="cls-1" x="145.82" y="21.28" width="480.56" height="311.09" rx="2.77"/><rect class="cls-2" x="131.04" y="21.28" width="510.12" height="18.94" rx="0.7"/><rect class="cls-3" x="219.87" y="190.95" width="220.26" height="127.59" rx="2.64"/><rect class="cls-3" x="156.51" y="52.16" width="52.45" height="265.2" rx="1.86"/><path class="cls-4" d="M318.23,291.31H306.7a1.16,1.16,0,1,1,0-2.31h11.53a1.16,1.16,0,1,1,0,2.31Z"/><path class="cls-4" d="M292.76,291.31H255.35a1.16,1.16,0,1,1,0-2.31h37.41a1.16,1.16,0,1,1,0,2.31Z"/><path class="cls-4" d="M246.3,291.31h-14a1.16,1.16,0,1,1,0-2.31h14a1.16,1.16,0,0,1,0,2.31Z"/><path class="cls-4" d="M318.23,298.89H283.11a1.16,1.16,0,1,1,0-2.31h35.12a1.16,1.16,0,1,1,0,2.31Z"/><path class="cls-4" d="M269.41,298.89H232.27a1.16,1.16,0,1,1,0-2.31h37.14a1.16,1.16,0,1,1,0,2.31Z"/><path class="cls-4" d="M318.23,306.78H263.57a1.16,1.16,0,0,1,0-2.32h54.66a1.16,1.16,0,0,1,0,2.32Z"/><path class="cls-4" d="M253.92,306.78H232.27a1.16,1.16,0,0,1,0-2.32h21.65a1.16,1.16,0,0,1,0,2.32Z"/><rect class="cls-5" x="170.54" y="102.01" width="24.41" height="24.41" rx="2.78"/><rect class="cls-5" x="170.54" y="138.47" width="24.41" height="24.41" rx="2.78"/><path class="cls-2" d="M809,462.54H10.33s21.8,34.25,61.93,30.12,59-16.53,77.92-10,33.64,24.79,86.18,22.43,44.86-19.29,74.37-21.16,54.39,22.93,100.39,26.47,51.89-24.79,79.64-27.74,33.77,17.12,46.69,18.3S564.54,484.4,578.11,482s34.83,15.34,85.59,18.3,43.68-14.76,65.52-18.89S785.49,485.54,809,462.54Z"/><rect class="cls-3" x="219.5" y="51.95" width="220.26" height="127.59" rx="2.64"/><polygon class="cls-5" points="681.34 194 703.1 329.89 630.41 329.89 681.34 194"/><polygon class="cls-6" points="624 462.77 632.34 462.77 653.5 346.56 645.16 346.56 624 462.77"/><polygon class="cls-5" points="727.41 462.77 719.07 462.77 694.76 329.89 703.1 329.89 727.41 462.77"/><polygon class="cls-6" points="468.07 462.77 476.41 462.77 497.57 346.56 489.23 346.56 468.07 462.77"/><rect class="cls-3" x="451.08" y="51.95" width="164.29" height="57.12" rx="1.53"/><rect class="cls-3" x="451.08" y="120.81" width="164.29" height="197.73" rx="2.84"/><path class="cls-4" d="M507.43,254.27H468.15a1.16,1.16,0,0,1,0-2.32h39.28a1.16,1.16,0,0,1,0,2.32Z"/><path class="cls-4" d="M507.43,261.85H468.15a1.16,1.16,0,0,1,0-2.32h39.28a1.16,1.16,0,0,1,0,2.32Z"/><path class="cls-4" d="M507.43,269.73H468.15a1.16,1.16,0,0,1,0-2.31h39.28a1.16,1.16,0,1,1,0,2.31Z"/><polygon class="cls-2" points="653.56 346.56 489.2 346.56 516.98 194 681.34 194 653.56 346.56"/><path class="cls-7" d="M237.22,150.68h0a3.35,3.35,0,0,1-3.34-3.35V106.46a3.35,3.35,0,1,1,6.69,0v40.87A3.36,3.36,0,0,1,237.22,150.68Z"/><path class="cls-8" d="M254.09,150.68h0a3.35,3.35,0,0,1-3.34-3.35V117.56a3.35,3.35,0,0,1,3.34-3.35h0a3.36,3.36,0,0,1,3.35,3.35v29.77A3.36,3.36,0,0,1,254.09,150.68Z"/><rect class="cls-7" x="267.62" y="90.22" width="6.69" height="60.46" rx="3.35"/><path class="cls-8" d="M287.84,150.68h0a3.36,3.36,0,0,1-3.35-3.35V130.24a3.35,3.35,0,1,1,6.69,0v17.09A3.35,3.35,0,0,1,287.84,150.68Z"/><path class="cls-7" d="M304.71,150.68h0a3.36,3.36,0,0,1-3.35-3.35V115a3.35,3.35,0,1,1,6.69,0v32.36A3.35,3.35,0,0,1,304.71,150.68Z"/><path class="cls-8" d="M321.58,150.68h0a3.36,3.36,0,0,1-3.35-3.35V103.41a3.35,3.35,0,0,1,6.7,0v43.92A3.36,3.36,0,0,1,321.58,150.68Z"/><rect class="cls-7" x="335.11" y="90.22" width="6.69" height="60.46" rx="3.35"/><path class="cls-8" d="M355.32,150.68h0a3.35,3.35,0,0,1-3.34-3.35V117.56a3.35,3.35,0,1,1,6.69,0v29.77A3.36,3.36,0,0,1,355.32,150.68Z"/><path class="cls-7" d="M372.2,150.68h0a3.36,3.36,0,0,1-3.35-3.35V100.91a3.35,3.35,0,0,1,6.69,0v46.42A3.35,3.35,0,0,1,372.2,150.68Z"/><path class="cls-8" d="M389.07,150.68h0a3.36,3.36,0,0,1-3.35-3.35V81.09a3.35,3.35,0,0,1,6.69,0v66.24A3.35,3.35,0,0,1,389.07,150.68Z"/><path class="cls-7" d="M405.94,150.68h0a3.36,3.36,0,0,1-3.35-3.35V119.09a3.35,3.35,0,1,1,6.7,0v28.24A3.36,3.36,0,0,1,405.94,150.68Z"/><path class="cls-8" d="M422.81,150.68h0a3.35,3.35,0,0,1-3.34-3.35V110.41a3.35,3.35,0,1,1,6.69,0v36.92A3.36,3.36,0,0,1,422.81,150.68Z"/><path class="cls-4" d="M274.31,66.12H235a1.16,1.16,0,0,1,0-2.32h39.28a1.16,1.16,0,1,1,0,2.32Z"/><path class="cls-4" d="M274.31,73.7H235a1.16,1.16,0,0,1,0-2.31h39.28a1.16,1.16,0,1,1,0,2.31Z"/><path class="cls-4" d="M374.22,207.43H334.94a1.16,1.16,0,0,1,0-2.32h39.28a1.16,1.16,0,0,1,0,2.32Z"/><path class="cls-4" d="M374.22,215H334.94a1.16,1.16,0,1,1,0-2.31h39.28a1.16,1.16,0,1,1,0,2.31Z"/><path class="cls-4" d="M374.22,238.8H334.94a1.16,1.16,0,1,1,0-2.32h39.28a1.16,1.16,0,0,1,0,2.32Z"/><path class="cls-9" d="M596,143.85h-.46a1.16,1.16,0,1,1,0-2.32H596a1.16,1.16,0,0,1,0,2.32Zm-6,0h-.46a1.16,1.16,0,1,1,0-2.32h.46a1.16,1.16,0,0,1,0,2.32Zm-6,0h-.46a1.16,1.16,0,1,1,0-2.32h.46a1.16,1.16,0,0,1,0,2.32Zm-6,0h-.46a1.16,1.16,0,1,1,0-2.32h.46a1.16,1.16,0,0,1,0,2.32Zm-6,0h-.46a1.16,1.16,0,1,1,0-2.32h.46a1.16,1.16,0,0,1,0,2.32Zm-6,0h-.46a1.16,1.16,0,1,1,0-2.32h.46a1.16,1.16,0,0,1,0,2.32Zm-6,0h-.46a1.16,1.16,0,1,1,0-2.32h.46a1.16,1.16,0,0,1,0,2.32Zm-6,0h-.47a1.16,1.16,0,0,1,0-2.32h.47a1.16,1.16,0,0,1,0,2.32Zm-6,0h-.47a1.16,1.16,0,0,1,0-2.32h.47a1.16,1.16,0,0,1,0,2.32Zm-6,0h-.46a1.16,1.16,0,1,1,0-2.32h.46a1.16,1.16,0,0,1,0,2.32Zm-6,0h-.46a1.16,1.16,0,1,1,0-2.32h.46a1.16,1.16,0,0,1,0,2.32Zm-6,0h-.46a1.16,1.16,0,1,1,0-2.32h.46a1.16,1.16,0,0,1,0,2.32Zm-6,0h-.46a1.16,1.16,0,1,1,0-2.32h.46a1.16,1.16,0,0,1,0,2.32Zm-6,0h-.46a1.16,1.16,0,1,1,0-2.32h.46a1.16,1.16,0,0,1,0,2.32Zm-6,0h-.46a1.16,1.16,0,0,1,0-2.32h.46a1.16,1.16,0,1,1,0,2.32Zm-6,0h-.46a1.16,1.16,0,1,1,0-2.32h.46a1.16,1.16,0,0,1,0,2.32Zm-6,0h-.47a1.16,1.16,0,0,1,0-2.32h.47a1.16,1.16,0,0,1,0,2.32Zm-6,0h-.47a1.16,1.16,0,0,1,0-2.32h.47a1.16,1.16,0,0,1,0,2.32Zm-6,0h-.47a1.16,1.16,0,0,1,0-2.32h.47a1.16,1.16,0,0,1,0,2.32Zm-6,0h-.46a1.16,1.16,0,1,1,0-2.32h.46a1.16,1.16,0,1,1,0,2.32Zm-6,0h-.46a1.16,1.16,0,0,1,0-2.32h.46a1.16,1.16,0,1,1,0,2.32Zm-6,0h-.46a1.16,1.16,0,1,1,0-2.32h.46a1.16,1.16,0,0,1,0,2.32Z"/><path class="cls-9" d="M596,162.27h-.46a1.16,1.16,0,1,1,0-2.31H596a1.16,1.16,0,1,1,0,2.31Zm-6,0h-.46a1.16,1.16,0,1,1,0-2.31h.46a1.16,1.16,0,1,1,0,2.31Zm-6,0h-.46a1.16,1.16,0,1,1,0-2.31h.46a1.16,1.16,0,1,1,0,2.31Zm-6,0h-.46a1.16,1.16,0,1,1,0-2.31h.46a1.16,1.16,0,1,1,0,2.31Zm-6,0h-.46a1.16,1.16,0,1,1,0-2.31h.46a1.16,1.16,0,1,1,0,2.31Zm-6,0h-.46a1.16,1.16,0,1,1,0-2.31h.46a1.16,1.16,0,1,1,0,2.31Zm-6,0h-.46a1.16,1.16,0,1,1,0-2.31h.46a1.16,1.16,0,1,1,0,2.31Zm-6,0h-.47a1.16,1.16,0,0,1,0-2.31h.47a1.16,1.16,0,0,1,0,2.31Zm-6,0h-.47a1.16,1.16,0,0,1,0-2.31h.47a1.16,1.16,0,0,1,0,2.31Zm-6,0h-.46a1.16,1.16,0,1,1,0-2.31h.46a1.16,1.16,0,1,1,0,2.31Zm-6,0h-.46a1.16,1.16,0,1,1,0-2.31h.46a1.16,1.16,0,1,1,0,2.31Zm-6,0h-.46a1.16,1.16,0,1,1,0-2.31h.46a1.16,1.16,0,1,1,0,2.31Zm-6,0h-.46a1.16,1.16,0,1,1,0-2.31h.46a1.16,1.16,0,1,1,0,2.31Zm-6,0h-.46a1.16,1.16,0,1,1,0-2.31h.46a1.16,1.16,0,1,1,0,2.31Zm-6,0h-.46a1.16,1.16,0,1,1,0-2.31h.46a1.16,1.16,0,1,1,0,2.31Zm-6,0h-.46a1.16,1.16,0,1,1,0-2.31h.46a1.16,1.16,0,1,1,0,2.31Zm-6,0h-.47a1.16,1.16,0,1,1,0-2.31h.47a1.16,1.16,0,0,1,0,2.31Zm-6,0h-.47a1.16,1.16,0,0,1,0-2.31h.47a1.16,1.16,0,0,1,0,2.31Zm-6,0h-.47a1.16,1.16,0,0,1,0-2.31h.47a1.16,1.16,0,0,1,0,2.31Zm-6,0h-.46a1.16,1.16,0,1,1,0-2.31h.46a1.16,1.16,0,1,1,0,2.31Zm-6,0h-.46a1.16,1.16,0,1,1,0-2.31h.46a1.16,1.16,0,1,1,0,2.31Zm-6,0h-.46a1.16,1.16,0,1,1,0-2.31h.46a1.16,1.16,0,1,1,0,2.31Z"/><path class="cls-9" d="M596,181.49h-.46a1.16,1.16,0,1,1,0-2.31H596a1.16,1.16,0,1,1,0,2.31Zm-6,0h-.46a1.16,1.16,0,1,1,0-2.31h.46a1.16,1.16,0,1,1,0,2.31Zm-6,0h-.46a1.16,1.16,0,1,1,0-2.31h.46a1.16,1.16,0,1,1,0,2.31Zm-6,0h-.46a1.16,1.16,0,1,1,0-2.31h.46a1.16,1.16,0,1,1,0,2.31Zm-6,0h-.46a1.16,1.16,0,1,1,0-2.31h.46a1.16,1.16,0,1,1,0,2.31Zm-6,0h-.46a1.16,1.16,0,1,1,0-2.31h.46a1.16,1.16,0,1,1,0,2.31Zm-6,0h-.46a1.16,1.16,0,1,1,0-2.31h.46a1.16,1.16,0,1,1,0,2.31Zm-6,0h-.47a1.16,1.16,0,0,1,0-2.31h.47a1.16,1.16,0,0,1,0,2.31Zm-6,0h-.47a1.16,1.16,0,0,1,0-2.31h.47a1.16,1.16,0,0,1,0,2.31Zm-6,0h-.46a1.16,1.16,0,1,1,0-2.31h.46a1.16,1.16,0,1,1,0,2.31Zm-6,0h-.46a1.16,1.16,0,1,1,0-2.31h.46a1.16,1.16,0,1,1,0,2.31Zm-6,0h-.46a1.16,1.16,0,1,1,0-2.31h.46a1.16,1.16,0,1,1,0,2.31Zm-6,0h-.46a1.16,1.16,0,1,1,0-2.31h.46a1.16,1.16,0,1,1,0,2.31Zm-6,0h-.46a1.16,1.16,0,1,1,0-2.31h.46a1.16,1.16,0,1,1,0,2.31Zm-6,0h-.46a1.16,1.16,0,1,1,0-2.31h.46a1.16,1.16,0,1,1,0,2.31Zm-6,0h-.46a1.16,1.16,0,1,1,0-2.31h.46a1.16,1.16,0,1,1,0,2.31Zm-6,0h-.47a1.16,1.16,0,1,1,0-2.31h.47a1.16,1.16,0,0,1,0,2.31Zm-6,0h-.47a1.16,1.16,0,0,1,0-2.31h.47a1.16,1.16,0,0,1,0,2.31Zm-6,0h-.47a1.16,1.16,0,0,1,0-2.31h.47a1.16,1.16,0,0,1,0,2.31Zm-6,0h-.46a1.16,1.16,0,1,1,0-2.31h.46a1.16,1.16,0,1,1,0,2.31Zm-6,0h-.46a1.16,1.16,0,1,1,0-2.31h.46a1.16,1.16,0,1,1,0,2.31Zm-6,0h-.46a1.16,1.16,0,1,1,0-2.31h.46a1.16,1.16,0,1,1,0,2.31Z"/><path class="cls-4" d="M374.22,246.38H334.94a1.16,1.16,0,0,1,0-2.32h39.28a1.16,1.16,0,0,1,0,2.32Z"/><path class="cls-4" d="M374.22,254.27H334.94a1.16,1.16,0,0,1,0-2.32h39.28a1.16,1.16,0,0,1,0,2.32Z"/><path class="cls-4" d="M491.9,204.76H468.15a1.16,1.16,0,0,1,0-2.31H491.9a1.16,1.16,0,1,1,0,2.31Z"/><path class="cls-4" d="M569,215H545.25a1.16,1.16,0,1,1,0-2.31H569a1.16,1.16,0,1,1,0,2.31Z"/><path class="cls-4" d="M491.9,212.35H468.15a1.16,1.16,0,0,1,0-2.32H491.9a1.16,1.16,0,1,1,0,2.32Z"/><path class="cls-4" d="M491.9,220.23H468.15a1.16,1.16,0,0,1,0-2.31H491.9a1.16,1.16,0,1,1,0,2.31Z"/><path class="cls-4" d="M318.23,267.86h-86a1.16,1.16,0,1,1,0-2.31h86a1.16,1.16,0,1,1,0,2.31Z"/><path class="cls-4" d="M318.23,275.44H263.57a1.16,1.16,0,1,1,0-2.31h54.66a1.16,1.16,0,1,1,0,2.31Z"/><path class="cls-4" d="M247.84,275.44H232.27a1.16,1.16,0,1,1,0-2.31h15.57a1.16,1.16,0,1,1,0,2.31Z"/><path class="cls-4" d="M318.23,283.33H302.05a1.16,1.16,0,0,1,0-2.31h16.18a1.16,1.16,0,1,1,0,2.31Z"/><path class="cls-4" d="M283.11,283.33H232.27a1.16,1.16,0,1,1,0-2.31h50.84a1.16,1.16,0,1,1,0,2.31Z"/><path class="cls-4" d="M238.81,161.51h-3.18a1.76,1.76,0,0,1,0-3.51h3.18a1.76,1.76,0,1,1,0,3.51Z"/><path class="cls-4" d="M255.68,161.51H252.5a1.76,1.76,0,0,1,0-3.51h3.18a1.76,1.76,0,1,1,0,3.51Z"/><path class="cls-4" d="M272.56,161.51h-3.19a1.76,1.76,0,0,1,0-3.51h3.19a1.76,1.76,0,0,1,0,3.51Z"/><path class="cls-4" d="M289.43,161.51h-3.18a1.76,1.76,0,1,1,0-3.51h3.18a1.76,1.76,0,0,1,0,3.51Z"/><path class="cls-4" d="M306.3,161.51h-3.18a1.76,1.76,0,1,1,0-3.51h3.18a1.76,1.76,0,0,1,0,3.51Z"/><path class="cls-4" d="M323.17,161.51H320a1.76,1.76,0,1,1,0-3.51h3.18a1.76,1.76,0,1,1,0,3.51Z"/><path class="cls-4" d="M340,161.51h-3.18a1.76,1.76,0,0,1,0-3.51H340a1.76,1.76,0,1,1,0,3.51Z"/><path class="cls-4" d="M356.91,161.51h-3.18a1.76,1.76,0,0,1,0-3.51h3.18a1.76,1.76,0,1,1,0,3.51Z"/><path class="cls-4" d="M373.79,161.51H370.6a1.76,1.76,0,0,1,0-3.51h3.19a1.76,1.76,0,0,1,0,3.51Z"/><path class="cls-4" d="M390.66,161.51h-3.18a1.76,1.76,0,1,1,0-3.51h3.18a1.76,1.76,0,0,1,0,3.51Z"/><path class="cls-4" d="M407.53,161.51h-3.18a1.76,1.76,0,1,1,0-3.51h3.18a1.76,1.76,0,1,1,0,3.51Z"/><path class="cls-4" d="M424.4,161.51h-3.18a1.76,1.76,0,0,1,0-3.51h3.18a1.76,1.76,0,1,1,0,3.51Z"/><rect class="cls-10" x="458.61" y="60.58" width="9.54" height="9.54" rx="1.85"/><rect class="cls-10" x="458.61" y="75.63" width="9.54" height="9.54" rx="1.85"/><rect class="cls-8" x="458.61" y="90.69" width="9.54" height="9.54" rx="1.85"/><rect class="cls-11" x="473.67" y="60.58" width="9.54" height="9.54" rx="1.85"/><rect class="cls-10" x="473.67" y="75.63" width="9.54" height="9.54" rx="1.85"/><rect class="cls-7" x="473.67" y="90.69" width="9.54" height="9.54" rx="1.85"/><rect class="cls-10" x="488.73" y="60.58" width="9.54" height="9.54" rx="1.85"/><rect class="cls-8" x="488.73" y="75.63" width="9.54" height="9.54" rx="1.85"/><rect class="cls-10" x="488.73" y="90.69" width="9.54" height="9.54" rx="1.85"/><rect class="cls-8" x="503.78" y="60.58" width="9.54" height="9.54" rx="1.85"/><rect class="cls-8" x="503.78" y="75.63" width="9.54" height="9.54" rx="1.85"/><rect class="cls-10" x="503.78" y="90.69" width="9.54" height="9.54" rx="1.85"/><rect class="cls-10" x="518.84" y="60.58" width="9.54" height="9.54" rx="1.85"/><rect class="cls-10" x="518.84" y="75.63" width="9.54" height="9.54" rx="1.85"/><rect class="cls-11" x="518.84" y="90.69" width="9.54" height="9.54" rx="1.85"/><rect class="cls-8" x="533.9" y="60.58" width="9.54" height="9.54" rx="1.85"/><rect class="cls-7" x="533.9" y="75.63" width="9.54" height="9.54" rx="1.85"/><rect class="cls-10" x="533.9" y="90.69" width="9.54" height="9.54" rx="1.85"/><rect class="cls-10" x="548.96" y="60.58" width="9.54" height="9.54" rx="1.85"/><rect class="cls-11" x="548.96" y="75.63" width="9.54" height="9.54" rx="1.85"/><rect class="cls-10" x="548.96" y="90.69" width="9.54" height="9.54" rx="1.85"/><rect class="cls-10" x="564.02" y="60.58" width="9.54" height="9.54" rx="1.85"/><rect class="cls-11" x="564.02" y="75.63" width="9.54" height="9.54" rx="1.85"/><rect class="cls-8" x="564.02" y="90.69" width="9.54" height="9.54" rx="1.85"/><rect class="cls-11" x="579.07" y="60.58" width="9.54" height="9.54" rx="1.85"/><rect class="cls-10" x="579.07" y="75.63" width="9.54" height="9.54" rx="1.85"/><rect class="cls-10" x="579.07" y="90.69" width="9.54" height="9.54" rx="1.85"/><rect class="cls-7" x="594.13" y="60.58" width="9.54" height="9.54" rx="1.85"/><rect class="cls-8" x="594.13" y="75.63" width="9.54" height="9.54" rx="1.85"/><rect class="cls-11" x="594.13" y="90.69" width="9.54" height="9.54" rx="1.85"/><rect class="cls-7" x="231.67" y="203.61" width="86.56" height="51.14" rx="2.78"/><polygon class="cls-10" points="277.59 234.86 268.85 222.32 256.06 240.53 273.41 240.53 281.64 240.53 291.21 240.53 282.31 228.26 277.59 234.86"/><path class="cls-10" d="M287.25,223.33A3.66,3.66,0,1,0,283.9,220,3.67,3.67,0,0,0,287.25,223.33Z"/><rect class="cls-5" x="391.95" y="206.27" width="11.48" height="48.47" rx="2.61"/><rect class="cls-11" x="391.95" y="243.26" width="11.48" height="11.48" rx="1.53"/><path class="cls-12" d="M521.94,335.05l-.22,0a1.15,1.15,0,0,1-.92-1.35l6.46-33.8a1.16,1.16,0,1,1,2.27.43l-6.45,33.8A1.16,1.16,0,0,1,521.94,335.05Z"/><path class="cls-12" d="M538.31,335.05a.83.83,0,0,1-.22,0,1.15,1.15,0,0,1-.92-1.35l9.6-50.25a1.16,1.16,0,1,1,2.27.44l-9.6,50.24A1.15,1.15,0,0,1,538.31,335.05Z"/><path class="cls-12" d="M554.67,335.05l-.2,0a1.17,1.17,0,0,1-.94-1.35l8.05-44.19a1.15,1.15,0,1,1,2.27.42l-8,44.18A1.17,1.17,0,0,1,554.67,335.05Z"/><path class="cls-12" d="M571,335.05l-.21,0a1.17,1.17,0,0,1-.93-1.35l11.7-64.26a1.15,1.15,0,1,1,2.27.42l-11.69,64.25A1.17,1.17,0,0,1,571,335.05Z"/><path class="cls-12" d="M587.41,335.05l-.21,0a1.16,1.16,0,0,1-.93-1.35l14.86-81.6a1.15,1.15,0,1,1,2.27.42l-14.85,81.59A1.17,1.17,0,0,1,587.41,335.05Z"/><path class="cls-12" d="M603.78,335.05l-.21,0a1.16,1.16,0,0,1-.93-1.35l14.08-77.37a1.16,1.16,0,0,1,1.35-.93,1.14,1.14,0,0,1,.93,1.34l-14.09,77.37A1.16,1.16,0,0,1,603.78,335.05Z"/><path class="cls-12" d="M620.14,335.05l-.21,0a1.17,1.17,0,0,1-.93-1.35l17.92-98.4a1.16,1.16,0,0,1,1.35-.93,1.17,1.17,0,0,1,.93,1.35l-17.92,98.39A1.17,1.17,0,0,1,620.14,335.05Z"/><rect class="cls-5" x="413.72" y="206.27" width="11.48" height="48.47" rx="2.61"/><rect class="cls-8" x="413.72" y="231.43" width="11.48" height="23.32" rx="1.44"/><path class="cls-10" d="M353.31,296.94a9.44,9.44,0,1,1,0-18.87h0v-8.68h0a18.11,18.11,0,1,0,14.83,28.5l-7.11-5A9.43,9.43,0,0,1,353.31,296.94Z"/><path class="cls-8" d="M353.31,269.39v8.68A9.43,9.43,0,0,1,361,292.92l7.11,5a18.11,18.11,0,0,0-14.83-28.5Z"/><path class="cls-10" d="M417.14,282.17a9.44,9.44,0,1,1-7.79-4.1h.24l-.11-8.68h-.13a18.12,18.12,0,1,0,14.83,7.72Z"/><path class="cls-11" d="M417.14,282.17l7-5.06a18.08,18.08,0,0,0-14.7-7.71l.11,8.68A9.43,9.43,0,0,1,417.14,282.17Z"/><circle class="cls-10" cx="493.5" cy="142.69" r="4.87"/><path class="cls-11" d="M493.5,149.19a6.5,6.5,0,1,1,6.49-6.5A6.51,6.51,0,0,1,493.5,149.19Zm0-9.75a3.25,3.25,0,1,0,3.25,3.25A3.25,3.25,0,0,0,493.5,139.44Z"/><circle class="cls-10" cx="507.11" cy="180.33" r="4.87"/><path class="cls-11" d="M507.11,186.83a6.5,6.5,0,1,1,6.49-6.5A6.51,6.51,0,0,1,507.11,186.83Zm0-9.75a3.26,3.26,0,1,0,3.25,3.25A3.26,3.26,0,0,0,507.11,177.08Z"/><circle class="cls-10" cx="541.58" cy="161.12" r="4.87"/><path class="cls-8" d="M541.58,167.61a6.5,6.5,0,1,1,6.5-6.49A6.5,6.5,0,0,1,541.58,167.61Zm0-9.75a3.26,3.26,0,1,0,3.26,3.26A3.26,3.26,0,0,0,541.58,157.86Z"/><rect class="cls-5" x="170.54" y="65.55" width="24.41" height="24.41" rx="2.78"/><circle class="cls-10" cx="182.74" cy="77.76" r="5.28" transform="translate(41.37 217.23) rotate(-67.66)"/><circle class="cls-10" cx="182.74" cy="114.22" r="5.28" transform="translate(-30 79.86) rotate(-22.83)"/><circle class="cls-10" cx="182.74" cy="150.85" r="5.28"/><path class="cls-8" d="M507.43,323.84a1.83,1.83,0,0,1-1.28-.52,1.86,1.86,0,0,1-.06-2.62l38.12-39.81a1.82,1.82,0,0,1,1.36-.57,1.89,1.89,0,0,1,1.35.61l10.46,11.56,42.24-43.07a1.91,1.91,0,0,1,1.39-.56,1.85,1.85,0,0,1,1.35.66l9.16,10.92,32.26-33.58-9,2.44a1.85,1.85,0,0,1-1-3.58l15.46-4.17a1.85,1.85,0,0,1,1.82,3.07L612.76,264.5a1.85,1.85,0,0,1-1.39.56,1.8,1.8,0,0,1-1.36-.66l-9.17-10.93-42.19,43a1.86,1.86,0,0,1-2.69-.05l-10.45-11.55-36.74,38.38A1.84,1.84,0,0,1,507.43,323.84Z"/><path class="cls-8" d="M647.07,239.51l-.34,0a1.85,1.85,0,0,1-1.48-2.16L647.91,223a1.85,1.85,0,0,1,3.64.68L648.89,238A1.84,1.84,0,0,1,647.07,239.51Z"/><ellipse class="cls-5" cx="533.22" cy="212.59" rx="5.54" ry="4.93" transform="translate(208.48 685.94) rotate(-77.28)"/><path class="cls-4" d="M565.51,231.23H541.77a1.16,1.16,0,1,1,0-2.32h23.74a1.16,1.16,0,0,1,0,2.32Z"/><path class="cls-4" d="M563.47,238.41H539.72a1.16,1.16,0,1,1,0-2.32h23.75a1.16,1.16,0,0,1,0,2.32Z"/><path class="cls-8" d="M523.66,232.57c-.68,3,.92,6,3.58,6.55s5.35-1.36,6-4.38-.92-5.94-3.58-6.54S524.34,229.56,523.66,232.57Z"/><rect class="cls-6" x="109.57" y="354.95" width="67.91" height="17.39" rx="1.95"/><rect class="cls-2" x="85.77" y="167.55" width="115.51" height="195.05" rx="1.95"/><rect class="cls-5" x="141.01" y="372.34" width="5.03" height="85.9"/><polygon class="cls-5" points="112.09 458.24 107.06 458.24 135.98 372.34 141.01 372.34 112.09 458.24"/><polygon class="cls-5" points="174.97 458.24 180 458.24 151.08 372.34 146.05 372.34 174.97 458.24"/><path class="cls-9" d="M153.37,181.05H130.44a.82.82,0,0,1-.82-.82.82.82,0,0,1,.82-.81h22.93a.82.82,0,0,1,.82.81A.82.82,0,0,1,153.37,181.05Z"/><path class="cls-9" d="M146.94,187.6h-16.5a.82.82,0,0,1-.82-.81.82.82,0,0,1,.82-.82h16.5a.82.82,0,0,1,.82.82A.82.82,0,0,1,146.94,187.6Z"/><path class="cls-9" d="M153.37,194.19H130.44a.82.82,0,0,1-.82-.82.82.82,0,0,1,.82-.81h22.93a.82.82,0,0,1,.82.81A.82.82,0,0,1,153.37,194.19Z"/><path class="cls-9" d="M151.62,200.56H150a.82.82,0,0,1-.82-.82.82.82,0,0,1,.82-.81h1.63a.81.81,0,0,1,.81.81A.82.82,0,0,1,151.62,200.56Zm-6.52,0h-1.63a.82.82,0,0,1-.81-.82.81.81,0,0,1,.81-.81h1.63a.81.81,0,0,1,.81.81A.82.82,0,0,1,145.1,200.56Zm-6.52,0H137a.82.82,0,0,1-.81-.82.81.81,0,0,1,.81-.81h1.63a.82.82,0,0,1,.82.81A.82.82,0,0,1,138.58,200.56Zm-6.51,0h-1.63a.82.82,0,0,1-.82-.82.82.82,0,0,1,.82-.81h1.63a.81.81,0,0,1,.81.81A.82.82,0,0,1,132.07,200.56Z"/><path class="cls-9" d="M189.51,181.05H166.57a.82.82,0,0,1-.81-.82.81.81,0,0,1,.81-.81h22.94a.81.81,0,0,1,.81.81A.82.82,0,0,1,189.51,181.05Z"/><path class="cls-9" d="M183.08,187.6H166.57a.81.81,0,0,1-.81-.81.82.82,0,0,1,.81-.82h16.51a.82.82,0,0,1,.81.82A.81.81,0,0,1,183.08,187.6Z"/><path class="cls-9" d="M187.75,194.19h-1.63a.82.82,0,0,1-.81-.82.81.81,0,0,1,.81-.81h1.63a.82.82,0,0,1,.82.81A.82.82,0,0,1,187.75,194.19Zm-6.52,0h-1.62a.82.82,0,0,1-.82-.82.82.82,0,0,1,.82-.81h1.62a.82.82,0,0,1,.82.81A.82.82,0,0,1,181.23,194.19Zm-6.51,0h-1.63a.82.82,0,0,1-.82-.82.82.82,0,0,1,.82-.81h1.63a.81.81,0,0,1,.81.81A.82.82,0,0,1,174.72,194.19Zm-6.52,0h-1.63a.82.82,0,0,1-.81-.82.81.81,0,0,1,.81-.81h1.63a.82.82,0,0,1,.82.81A.82.82,0,0,1,168.2,194.19Z"/><path class="cls-9" d="M189.51,200.56H166.57a.82.82,0,0,1-.81-.82.81.81,0,0,1,.81-.81h22.94a.81.81,0,0,1,.81.81A.82.82,0,0,1,189.51,200.56Z"/><path class="cls-9" d="M113.86,338.78H100.59a.82.82,0,0,1-.82-.82.82.82,0,0,1,.82-.81h13.27a.81.81,0,0,1,.81.81A.82.82,0,0,1,113.86,338.78Z"/><path class="cls-9" d="M113.86,345.36H100.59a.82.82,0,0,1-.82-.81.82.82,0,0,1,.82-.82h13.27a.82.82,0,0,1,.81.82A.81.81,0,0,1,113.86,345.36Z"/><path class="cls-9" d="M113.86,351.73H100.59a.82.82,0,0,1-.82-.81.82.82,0,0,1,.82-.82h13.27a.82.82,0,0,1,.81.82A.81.81,0,0,1,113.86,351.73Z"/><path class="cls-9" d="M140.72,338.78H127.45a.82.82,0,0,1-.82-.82.82.82,0,0,1,.82-.81h13.27a.81.81,0,0,1,.81.81A.82.82,0,0,1,140.72,338.78Z"/><path class="cls-9" d="M140.72,345.36H127.45a.82.82,0,0,1-.82-.81.82.82,0,0,1,.82-.82h13.27a.82.82,0,0,1,.81.82A.81.81,0,0,1,140.72,345.36Z"/><path class="cls-9" d="M140.72,351.73H127.45a.82.82,0,0,1-.82-.81.82.82,0,0,1,.82-.82h13.27a.82.82,0,0,1,.81.82A.81.81,0,0,1,140.72,351.73Z"/><path class="cls-8" d="M186.92,229a1.63,1.63,0,0,1-1.6-1.94l1.58-8.14a1.62,1.62,0,1,1,3.19.62l-1.57,8.14A1.63,1.63,0,0,1,186.92,229Z"/><circle class="cls-8" cx="107.4" cy="190.07" r="12.94"/><path class="cls-10" d="M112.71,192.7a3.09,3.09,0,0,1-1.12,2.5,5.56,5.56,0,0,1-3.16,1.13v2h-1.34v-2a10.82,10.82,0,0,1-4.19-.84V193a11.25,11.25,0,0,0,2,.74,10.77,10.77,0,0,0,2.14.38v-3l-.65-.26a7.35,7.35,0,0,1-2.75-1.66,3.15,3.15,0,0,1-.81-2.21,2.88,2.88,0,0,1,1.12-2.34,5.63,5.63,0,0,1,3.09-1.11V182h1.34v1.46a11.35,11.35,0,0,1,4.06.9l-.92,2.29a10.76,10.76,0,0,0-3.14-.76v2.89a14.92,14.92,0,0,1,2.72,1.27,3.82,3.82,0,0,1,1.19,1.18A3,3,0,0,1,112.71,192.7Zm-6.88-5.79a.94.94,0,0,0,.3.71,3.88,3.88,0,0,0,1,.57v-2.3Q105.83,186.07,105.83,186.91Zm3.94,5.94a.88.88,0,0,0-.34-.7,4.12,4.12,0,0,0-1-.58V194C109.32,193.85,109.77,193.47,109.77,192.85Z"/><path class="cls-11" d="M173.39,340.9a13.36,13.36,0,0,1,0-26.72v-5.67h0a19,19,0,1,0,11,34.6l-3.25-4.63A13.34,13.34,0,0,1,173.39,340.9Z"/><path class="cls-8" d="M185.52,322l5.12-2.35a19.06,19.06,0,0,0-17.27-11.1v5.67A13.39,13.39,0,0,1,185.52,322Z"/><path class="cls-7" d="M190.65,319.61,185.53,322a13.4,13.4,0,0,1-4.47,16.52l3.25,4.63a19.05,19.05,0,0,0,6.34-23.5Z"/><path class="cls-9" d="M180.38,286.48a.81.81,0,0,1-.81-.81V284a.82.82,0,0,1,.81-.82.82.82,0,0,1,.82.82v1.63A.82.82,0,0,1,180.38,286.48Zm0-6.52a.81.81,0,0,1-.81-.81v-1.63a.81.81,0,0,1,.81-.81.82.82,0,0,1,.82.81v1.63A.82.82,0,0,1,180.38,280Zm0-6.51a.82.82,0,0,1-.81-.82V271a.81.81,0,0,1,.81-.81.82.82,0,0,1,.82.81v1.63A.82.82,0,0,1,180.38,273.45Zm0-6.52a.81.81,0,0,1-.81-.81v-1.63a.82.82,0,0,1,.81-.82.82.82,0,0,1,.82.82v1.63A.82.82,0,0,1,180.38,266.93Zm0-6.52a.81.81,0,0,1-.81-.81V258a.81.81,0,0,1,.81-.81.82.82,0,0,1,.82.81v1.63A.82.82,0,0,1,180.38,260.41Zm0-6.51a.82.82,0,0,1-.81-.82v-1.62a.82.82,0,0,1,.81-.82.82.82,0,0,1,.82.82v1.62A.82.82,0,0,1,180.38,253.9Zm0-6.52a.81.81,0,0,1-.81-.81v-1.63a.82.82,0,0,1,.81-.82.82.82,0,0,1,.82.82v1.63A.82.82,0,0,1,180.38,247.38Zm0-6.51a.82.82,0,0,1-.81-.82v-1.63a.81.81,0,0,1,.81-.81.82.82,0,0,1,.82.81v1.63A.82.82,0,0,1,180.38,240.87Zm0-6.52a.81.81,0,0,1-.81-.81v-1.63a.82.82,0,0,1,.81-.82.82.82,0,0,1,.82.82v1.63A.82.82,0,0,1,180.38,234.35Z"/><path class="cls-9" d="M162,283.61a.81.81,0,0,1-.81-.81v-1.63a.81.81,0,0,1,.81-.81.82.82,0,0,1,.82.81v1.63A.82.82,0,0,1,162,283.61Zm0-6.51a.82.82,0,0,1-.81-.82v-1.62a.82.82,0,0,1,.81-.82.82.82,0,0,1,.82.82v1.62A.82.82,0,0,1,162,277.1Zm0-6.52a.81.81,0,0,1-.81-.81v-1.63a.82.82,0,0,1,.81-.82.82.82,0,0,1,.82.82v1.63A.82.82,0,0,1,162,270.58Zm0-6.51a.82.82,0,0,1-.81-.82v-1.63a.81.81,0,0,1,.81-.81.82.82,0,0,1,.82.81v1.63A.82.82,0,0,1,162,264.07Zm0-6.52a.81.81,0,0,1-.81-.81v-1.63a.82.82,0,0,1,.81-.82.82.82,0,0,1,.82.82v1.63A.82.82,0,0,1,162,257.55Zm0-6.52a.81.81,0,0,1-.81-.81v-1.63a.81.81,0,0,1,.81-.81.82.82,0,0,1,.82.81v1.63A.82.82,0,0,1,162,251Zm0-6.51a.82.82,0,0,1-.81-.82v-1.63a.81.81,0,0,1,.81-.81.82.82,0,0,1,.82.81v1.63A.82.82,0,0,1,162,244.52Z"/><path class="cls-9" d="M143.53,287.1a.82.82,0,0,1-.82-.81v-1.63a.82.82,0,0,1,.82-.81.81.81,0,0,1,.81.81v1.63A.81.81,0,0,1,143.53,287.1Zm0-6.51a.82.82,0,0,1-.82-.82v-1.63a.82.82,0,0,1,.82-.81.81.81,0,0,1,.81.81v1.63A.82.82,0,0,1,143.53,280.59Zm0-6.52a.82.82,0,0,1-.82-.81v-1.63a.82.82,0,0,1,.82-.82.82.82,0,0,1,.81.82v1.63A.81.81,0,0,1,143.53,274.07Zm0-6.51a.82.82,0,0,1-.82-.82v-1.63a.82.82,0,0,1,.82-.81.81.81,0,0,1,.81.81v1.63A.82.82,0,0,1,143.53,267.56Zm0-6.52a.82.82,0,0,1-.82-.81V258.6a.82.82,0,0,1,.82-.82.82.82,0,0,1,.81.82v1.63A.81.81,0,0,1,143.53,261Z"/><path class="cls-9" d="M125.1,283a.82.82,0,0,1-.81-.82v-1.63a.81.81,0,0,1,.81-.81.82.82,0,0,1,.82.81v1.63A.82.82,0,0,1,125.1,283Zm0-6.52a.81.81,0,0,1-.81-.81V274a.82.82,0,0,1,.81-.82.82.82,0,0,1,.82.82v1.63A.82.82,0,0,1,125.1,276.46Zm0-6.52a.81.81,0,0,1-.81-.81V267.5a.81.81,0,0,1,.81-.81.82.82,0,0,1,.82.81v1.63A.82.82,0,0,1,125.1,269.94Zm0-6.51a.82.82,0,0,1-.81-.82V261a.81.81,0,0,1,.81-.81.82.82,0,0,1,.82.81v1.63A.82.82,0,0,1,125.1,263.43Zm0-6.52a.81.81,0,0,1-.81-.81v-1.63a.82.82,0,0,1,.81-.82.82.82,0,0,1,.82.82v1.63A.82.82,0,0,1,125.1,256.91Zm0-6.51a.82.82,0,0,1-.81-.82V248a.81.81,0,0,1,.81-.81.82.82,0,0,1,.82.81v1.63A.82.82,0,0,1,125.1,250.4Zm0-6.52a.82.82,0,0,1-.81-.82v-1.62a.82.82,0,0,1,.81-.82.82.82,0,0,1,.82.82v1.62A.82.82,0,0,1,125.1,243.88Z"/><path class="cls-9" d="M106.68,286.08a.82.82,0,0,1-.82-.81v-1.63a.82.82,0,0,1,.82-.82.82.82,0,0,1,.81.82v1.63A.81.81,0,0,1,106.68,286.08Zm0-6.52a.82.82,0,0,1-.82-.81v-1.63a.82.82,0,0,1,.82-.81.81.81,0,0,1,.81.81v1.63A.81.81,0,0,1,106.68,279.56Zm0-6.51a.82.82,0,0,1-.82-.82V270.6a.82.82,0,0,1,.82-.81.81.81,0,0,1,.81.81v1.63A.82.82,0,0,1,106.68,273.05Zm0-6.52a.82.82,0,0,1-.82-.81v-1.63a.82.82,0,0,1,.82-.82.82.82,0,0,1,.81.82v1.63A.81.81,0,0,1,106.68,266.53Zm0-6.51a.82.82,0,0,1-.82-.82v-1.63a.82.82,0,0,1,.82-.81.81.81,0,0,1,.81.81v1.63A.82.82,0,0,1,106.68,260Z"/><rect class="cls-8" x="175.76" y="288.65" width="9.24" height="4.09" rx="1.95"/><rect class="cls-6" x="157.34" y="288.65" width="9.24" height="4.09" rx="1.95"/><rect class="cls-8" x="138.91" y="288.65" width="9.24" height="4.09" rx="1.95"/><rect class="cls-6" x="120.48" y="288.65" width="9.24" height="4.09" rx="1.95"/><rect class="cls-8" x="102.06" y="288.65" width="9.24" height="4.09" rx="1.95"/><path class="cls-8" d="M96,269.46a1.63,1.63,0,0,1-1.1-2.83L124,239.81a1.63,1.63,0,0,1,2.25,0L143.59,257l40.62-36.1h-4.32a1.63,1.63,0,0,1,0-3.26h8.61a1.63,1.63,0,0,1,1.08,2.85l-45,40a1.64,1.64,0,0,1-2.23-.05l-17.32-17.11L97.07,269A1.61,1.61,0,0,1,96,269.46Z"/><rect class="cls-5" x="95.97" y="213.36" width="24.37" height="11.5" rx="1.95"/><rect class="cls-5" x="100.25" y="323.78" width="13.6" height="7.58" rx="1.19"/><path class="cls-9" d="M145.81,328.36h-1.63a.82.82,0,0,1-.82-.81.82.82,0,0,1,.82-.82h1.63a.82.82,0,0,1,.81.82A.81.81,0,0,1,145.81,328.36Zm-6.52,0h-1.63a.81.81,0,0,1-.81-.81.82.82,0,0,1,.81-.82h1.63a.82.82,0,0,1,.82.82A.82.82,0,0,1,139.29,328.36Zm-6.52,0h-1.62a.82.82,0,0,1-.82-.81.82.82,0,0,1,.82-.82h1.62a.82.82,0,0,1,.82.82A.82.82,0,0,1,132.77,328.36Zm-6.51,0h-1.63a.82.82,0,0,1-.82-.81.82.82,0,0,1,.82-.82h1.63a.82.82,0,0,1,.81.82A.81.81,0,0,1,126.26,328.36Zm-6.52,0h-1.63a.81.81,0,0,1-.81-.81.82.82,0,0,1,.81-.82h1.63a.82.82,0,0,1,.82.82A.82.82,0,0,1,119.74,328.36Z"/><line class="cls-13" x1="353.03" y1="305.49" x2="353.03" y2="309.49"/><line class="cls-14" x1="353.03" y1="317.4" x2="353.03" y2="360.91"/><polyline class="cls-13" points="353.03 364.86 353.03 368.86 349.03 368.86"/><line class="cls-15" x1="341.19" y1="368.86" x2="203.9" y2="368.86"/><line class="cls-13" x1="199.98" y1="368.86" x2="195.98" y2="368.86"/></svg>