<svg id="Layer_1" data-name="Layer 1" xmlns="http://www.w3.org/2000/svg" viewBox="0 0 250 250"><defs><style>.cls-1{fill:#37474f;}</style></defs><path class="cls-1" d="M162.38,70.11A16.67,16.67,0,1,0,179,86.77,16.68,16.68,0,0,0,162.38,70.11Zm0,29.57a12.91,12.91,0,1,1,12.9-12.91A12.92,12.92,0,0,1,162.38,99.68Z"/><path class="cls-1" d="M167.49,84.89h-3.23V81.66a1.88,1.88,0,0,0-3.76,0v3.23h-3.23a1.88,1.88,0,0,0,0,3.76h3.23v3.23a1.88,1.88,0,1,0,3.76,0V88.65h3.23a1.88,1.88,0,1,0,0-3.76Z"/><path class="cls-1" d="M130.12,88.56H67.46a1.88,1.88,0,0,0-1.88,1.88c0,9.67,8.38,16,16.58,20.89a64.17,64.17,0,0,0,6.56,3.31c5.53,2.51,8.19,3.91,8.19,8.24a1.88,1.88,0,1,0,3.76,0c0-4.33,2.66-5.73,8.19-8.24a62.18,62.18,0,0,0,6.56-3.31c8.2-4.91,16.58-11.22,16.58-20.89A1.88,1.88,0,0,0,130.12,88.56ZM113.49,108.1a60.62,60.62,0,0,1-6.18,3.11c-3.34,1.52-6.57,3-8.52,5.57-2-2.59-5.17-4-8.52-5.57a60.62,60.62,0,0,1-6.18-3.11c-9.41-5.63-13.81-10.33-14.61-15.78H128.1C127.31,97.77,122.9,102.47,113.49,108.1Z"/><path class="cls-1" d="M100.67,143.06a1.88,1.88,0,0,0-3.76,0c0,4.33-2.66,5.73-8.19,8.25a64,64,0,0,0-6.56,3.3c-8.2,4.91-16.58,11.23-16.58,20.89v9.21a1.88,1.88,0,0,0,1.88,1.88h62.66a1.88,1.88,0,0,0,1.88-1.88V175.5c0-9.67-8.38-16-16.58-20.89a64,64,0,0,0-6.56-3.3C103.33,148.8,100.67,147.39,100.67,143.06Zm27.57,32.44v7.33H69.34V175.5c0-6.27,4.28-11.39,14.75-17.66a59.61,59.61,0,0,1,6.18-3.11c3.34-1.52,6.57-3,8.52-5.56,1.95,2.58,5.18,4,8.52,5.56a58.63,58.63,0,0,1,6.18,3.11C124,164.11,128.24,169.22,128.24,175.5Z"/><path class="cls-1" d="M199.6,92.17c-4.33-1.06-4.31-1.36-4.13-3.38.05-.6.1-1.27.1-2s0-1.42-.1-2c-.18-2-.2-2.33,4.13-3.38a2.46,2.46,0,0,0,1.84-2.93A39.66,39.66,0,0,0,195.89,65a2.47,2.47,0,0,0-3.37-.76c-3.8,2.32-4,2.09-5.32.54-.39-.46-.82-1-1.35-1.5s-1-1-1.5-1.35c-1.55-1.3-1.78-1.5.53-5.3a2.49,2.49,0,0,0-.76-3.39,39.41,39.41,0,0,0-13.43-5.55,2.45,2.45,0,0,0-2.92,1.84c-1.05,4.33-1.37,4.31-3.37,4.13-.61,0-1.28-.1-2-.1s-1.41.05-2,.1c-2,.18-2.33.2-3.38-4.13a2.48,2.48,0,0,0-2.93-1.84,39.56,39.56,0,0,0-8.87,3.1,6.47,6.47,0,0,0-5.71-3.16H58.1c-4.58,0-7,3.85-7,7.64s2.38,7.62,6.93,7.64V90.44c0,14,10,20.24,17.37,24.8,4.26,2.65,7.95,5,7.95,7.64s-3.69,5-7.95,7.64c-7.33,4.56-17.37,10.8-17.37,24.8v27.51c-4.55,0-6.93,3.85-6.93,7.64s2.39,7.64,7,7.64h81.38c4.58,0,7-3.85,7-7.64s-2.39-7.62-6.94-7.64V155.32c0-14-10-20.24-17.36-24.8-4.27-2.65-8-4.94-8-7.64s3.68-5,8-7.64a67.71,67.71,0,0,0,8.15-5.69,2.45,2.45,0,0,0,1.93-.27c3.81-2.32,4-2.09,5.32-.53.39.46.82,1,1.35,1.5s1,1,1.5,1.35c1.55,1.3,1.78,1.5-.54,5.32a2.48,2.48,0,0,0,.77,3.37,39.76,39.76,0,0,0,13.42,5.55,2.44,2.44,0,0,0,.53,0A2.47,2.47,0,0,0,157,124c1-4.33,1.37-4.3,3.38-4.13.6,0,1.26.11,2,.11h0c.75,0,1.41-.06,2-.11,1.5-.12,2.05-.16,2.66,1.56a15.67,15.67,0,0,0-1.39-.84,1.88,1.88,0,0,0-1.81,0l-5.58,3.23a1.87,1.87,0,0,0-.94,1.54,12.85,12.85,0,0,0,.77,5.09l-1.95,3.39a13,13,0,0,0-4.8,1.87,1.88,1.88,0,0,0-.87,1.58v6.46a1.9,1.9,0,0,0,.87,1.59,13,13,0,0,0,4.8,1.86l1.95,3.39a12.91,12.91,0,0,0-.77,5.1,1.87,1.87,0,0,0,.94,1.54l5.58,3.22a1.87,1.87,0,0,0,1.81.05,13,13,0,0,0,4-3.22h3.91a13.14,13.14,0,0,0,4,3.22,1.88,1.88,0,0,0,1.81-.05l5.59-3.22a1.89,1.89,0,0,0,.94-1.54,13,13,0,0,0-.78-5.1l2-3.39a12.56,12.56,0,0,0,4.8-1.87,1.87,1.87,0,0,0,.87-1.58v-6.46a1.88,1.88,0,0,0-.87-1.58,12.91,12.91,0,0,0-4.8-1.87l-2-3.39a12.92,12.92,0,0,0,.78-5.09,1.89,1.89,0,0,0-.94-1.54l-3.51-2c.88-.48,1.76-1,2.61-1.53a2.47,2.47,0,0,0,.78-3.38c-2.32-3.81-2.09-4-.54-5.31.46-.39,1-.83,1.5-1.35s1-1,1.35-1.5c1.31-1.56,1.51-1.78,5.31.53a2.49,2.49,0,0,0,3.38-.76,39.8,39.8,0,0,0,5.55-13.41A2.49,2.49,0,0,0,199.6,92.17Zm-141.5-33c-2.54,0-3.21-2.44-3.21-3.88s.67-3.87,3.21-3.87h81.38c2.54,0,3.21,2.43,3.21,3.87s-.67,3.88-3.21,3.88H58.1Zm79.55,127.42h1.83c2.54,0,3.21,2.44,3.21,3.88s-.67,3.88-3.21,3.88H58.1c-2.54,0-3.21-2.44-3.21-3.88s.67-3.88,3.21-3.88h79.55Zm-17.48-74.54c-5.22,3.24-9.72,6-9.72,10.83s4.5,7.59,9.72,10.83c7.31,4.55,15.59,9.71,15.59,21.61v27.51H61.82V155.32c0-11.9,8.29-17.06,15.59-21.61,5.22-3.24,9.73-6,9.73-10.83s-4.51-7.59-9.73-10.83c-7.3-4.55-15.59-9.7-15.59-21.61V62.93h73.94V90.44C135.76,102.35,127.48,107.5,120.17,112.05Zm62,14.51a7.08,7.08,0,0,1-.48,2.5,1.87,1.87,0,0,0-.35,2.32l3.09,5.35a1.79,1.79,0,0,0,2.12.87,6.62,6.62,0,0,1,2.47.82v4.27a8.55,8.55,0,0,1-2.41.83,1.85,1.85,0,0,0-2.18.85l-3.09,5.35a1.81,1.81,0,0,0,.31,2.28,6.86,6.86,0,0,1,.52,2.55l-3.69,2.13a7,7,0,0,1-1.93-1.67,1.86,1.86,0,0,0-1.83-1.46h-6.18a1.82,1.82,0,0,0-1.82,1.4,6.53,6.53,0,0,1-1.94,1.73l-3.69-2.13a7,7,0,0,1,.48-2.5,1.9,1.9,0,0,0,.35-2.33l-3.09-5.35a1.81,1.81,0,0,0-2.13-.86,7,7,0,0,1-2.46-.82v-4.27a8,8,0,0,1,2.44-.82,1.88,1.88,0,0,0,2.15-.87l3.09-5.35a1.82,1.82,0,0,0-.31-2.28,6.41,6.41,0,0,1-.52-2.54l3.69-2.14a7.34,7.34,0,0,1,1.93,1.67,1.87,1.87,0,0,0,1.83,1.47h6.18a1.82,1.82,0,0,0,1.82-1.41,6.41,6.41,0,0,1,1.94-1.72Zm11.2-21.13c-4.82-2.7-6.7-1.91-9.06.89-.33.39-.69.82-1.13,1.27s-.87.8-1.26,1.13c-2.8,2.36-3.6,4.23-.89,9.06a36,36,0,0,1-9.93,4.11c-1.51-5.33-3.42-6.08-7-5.78a16.91,16.91,0,0,1-1.69.1,16.73,16.73,0,0,1-1.69-.1c-3.63-.3-5.53.45-7,5.78a36,36,0,0,1-9.93-4.11c2.71-4.83,1.91-6.7-.89-9.06-.39-.33-.82-.69-1.26-1.13s-.81-.88-1.14-1.27c-1.51-1.8-2.83-2.77-4.87-2.51a23.11,23.11,0,0,0,4-13.37V62.93c4.55,0,6.94-3.85,6.94-7.64,0-.3-.05-.61-.08-.91a35.78,35.78,0,0,1,7.27-2.72c1.32,4.68,2.94,5.83,5.78,5.83.4,0,.81,0,1.25-.06s1.07-.09,1.7-.09,1.18,0,1.7.09c3.61.3,5.52-.45,7-5.77A36,36,0,0,1,181,55.77c-2.71,4.83-1.91,6.7.89,9.06.39.32.82.69,1.26,1.13s.81.87,1.14,1.26c2.35,2.8,4.23,3.6,9.06.89a35.91,35.91,0,0,1,4.1,9.94c-5.32,1.5-6.08,3.39-5.77,7,0,.51.09,1.07.09,1.7s-.05,1.18-.09,1.69c-.31,3.64.45,5.53,5.77,7A35.45,35.45,0,0,1,193.38,105.43Z"/><path class="cls-1" d="M171.64,130.5a10.06,10.06,0,1,0,10.06,10.05A10.07,10.07,0,0,0,171.64,130.5Zm0,16.35a6.3,6.3,0,1,1,6.29-6.3A6.31,6.31,0,0,1,171.64,146.85Z"/></svg>