<svg id="Layer_1" data-name="Layer 1" xmlns="http://www.w3.org/2000/svg" viewBox="0 0 250 250"><defs><style>.cls-1{fill:#37474f;}</style></defs><path class="cls-1" d="M196.63,106.68H114a2.17,2.17,0,0,0,0,4.34h82.59a2.17,2.17,0,1,0,0-4.34Z"/><path class="cls-1" d="M196.63,85.34H114a2.17,2.17,0,0,0,0,4.34h82.59a2.17,2.17,0,1,0,0-4.34Z"/><path class="cls-1" d="M196.63,64h-52.5a2.17,2.17,0,1,0,0,4.34h52.5a2.17,2.17,0,1,0,0-4.34Z"/><path class="cls-1" d="M218,39.07H92.65a7.42,7.42,0,0,0-7.41,7.41V133.6A7.42,7.42,0,0,0,92.65,141h7v14.87a2.16,2.16,0,0,0,1.19,1.93,2.12,2.12,0,0,0,1,.24,2.2,2.2,0,0,0,1.29-.43L125.57,141H218a7.42,7.42,0,0,0,7.41-7.41V46.48A7.42,7.42,0,0,0,218,39.07Zm3.07,94.53a3.08,3.08,0,0,1-3.07,3.07H124.86a2.12,2.12,0,0,0-1.29.42L104,151.57V138.84a2.17,2.17,0,0,0-2.17-2.17H92.65a3.08,3.08,0,0,1-3.07-3.07V46.48a3.08,3.08,0,0,1,3.07-3.07H218a3.08,3.08,0,0,1,3.07,3.07Z"/><path class="cls-1" d="M143,162.17a7.19,7.19,0,0,0-10.17,0l-7.59,7.59c-3.58,3.57-14.44,14.45-42.9-14-11-11-17.3-20.51-18.73-28.25-1.06-5.71.44-10.36,4.73-14.65h0l7.58-7.58a7.18,7.18,0,0,0,0-10.17L56,75.17a7.19,7.19,0,0,0-10.17,0l-7.59,7.59C28.76,92.22,23.9,103.71,25.86,112c2.82,12,15,35,40.14,60.06s48.05,37.32,60.06,40.14a16.64,16.64,0,0,0,3.85.43c7.79,0,17.34-4.72,25.41-12.79l7.59-7.59a7.18,7.18,0,0,0,0-10.17ZM48.88,78.24a2.85,2.85,0,0,1,4,0L72.84,98.17a2.84,2.84,0,0,1,0,4l-6,6.06-24-24ZM127.05,208c-11.46-2.69-33.52-14.52-58-39s-36.3-46.52-39-58c-1.47-6.25,2.48-15.74,9.71-23.64l24,24a19.58,19.58,0,0,0-4.46,16.91C60.94,137,67.46,147,79.26,158.82c20.26,20.27,35.81,25.36,47.43,15.48l24,24C142.8,205.51,133.3,209.47,127.05,208Zm32.79-18.8-6.05,6.06-24-24,6.06-6a2.85,2.85,0,0,1,4,0l19.93,19.93a2.84,2.84,0,0,1,0,4Z"/><path class="cls-1" d="M218,39.07H92.65a7.42,7.42,0,0,0-7.41,7.41V133.6A7.42,7.42,0,0,0,92.65,141h7v14.87a2.16,2.16,0,0,0,1.19,1.93,2.12,2.12,0,0,0,1,.24,2.2,2.2,0,0,0,1.29-.43L125.57,141H218a7.42,7.42,0,0,0,7.41-7.41V46.48A7.42,7.42,0,0,0,218,39.07Zm3.07,94.53a3.08,3.08,0,0,1-3.07,3.07H124.86a2.12,2.12,0,0,0-1.29.42L104,151.57V138.84a2.17,2.17,0,0,0-2.17-2.17H92.65a3.08,3.08,0,0,1-3.07-3.07V46.48a3.08,3.08,0,0,1,3.07-3.07H218a3.08,3.08,0,0,1,3.07,3.07Z"/><path class="cls-1" d="M143,162.17a7.19,7.19,0,0,0-10.17,0l-7.59,7.59c-3.58,3.57-14.44,14.45-42.9-14-11-11-17.3-20.51-18.73-28.25-1.06-5.71.44-10.36,4.73-14.65h0l7.58-7.58a7.18,7.18,0,0,0,0-10.17L56,75.17a7.19,7.19,0,0,0-10.17,0l-7.59,7.59C28.76,92.22,23.9,103.71,25.86,112c2.82,12,15,35,40.14,60.06s48.05,37.32,60.06,40.14a16.64,16.64,0,0,0,3.85.43c7.79,0,17.34-4.72,25.41-12.79l7.59-7.59a7.18,7.18,0,0,0,0-10.17ZM48.88,78.24a2.85,2.85,0,0,1,4,0L72.84,98.17a2.84,2.84,0,0,1,0,4l-6,6.06-24-24ZM127.05,208c-11.46-2.69-33.52-14.52-58-39s-36.3-46.52-39-58c-1.47-6.25,2.48-15.74,9.71-23.64l24,24a19.58,19.58,0,0,0-4.46,16.91C60.94,137,67.46,147,79.26,158.82c20.26,20.27,35.81,25.36,47.43,15.48l24,24C142.8,205.51,133.3,209.47,127.05,208Zm32.79-18.8-6.05,6.06-24-24,6.06-6a2.85,2.85,0,0,1,4,0l19.93,19.93a2.84,2.84,0,0,1,0,4Z"/></svg>