<svg id="Layer_1" data-name="Layer 1" xmlns="http://www.w3.org/2000/svg" viewBox="0 0 549 137"><path d="M84.33,50.19c0,17.63-11.1,27.62-30.58,27.62H38v26.27H26.74V22.68H52.38C72.74,22.68,84.33,32.55,84.33,50.19ZM73,50.19c0-11.47-7.64-18-21.33-18H38V68.31H52C65.46,68.31,73,61.78,73,50.19Z"/><path d="M150.22,104a26.76,26.76,0,0,1-5.91.73c-6.05,0-10.49-2.83-10.49-9.62V95h-.25c-1.6,3-6.66,9.87-20.22,9.87-12.83,0-19.74-6.65-19.74-16.15,0-12.71,12.1-17.77,37.74-17.77h1.73V67.21c0-7.9-4.81-13-14.43-13-8.27,0-13.32,3.34-13.32,9.38a6.45,6.45,0,0,0,.62,3L95.71,68.31A17.69,17.69,0,0,1,95,63.26c0-10.6,9.13-18.12,23.93-18.12,15.79,0,25,8.5,25,22V90.63c0,3.22.87,4.44,3.58,4.44a10,10,0,0,0,2.1-.24ZM133.08,84V78.42h-1.73c-19.85,0-26.64,3.59-26.64,10,0,4.56,3.46,7.28,10.86,7.28C126.91,95.7,133.08,89.41,133.08,84Z"/><path d="M221.91,75.1c0,17.88-11.34,29.72-28.36,29.72-9.13,0-15.91-4.31-19.86-10.36v34.78H162.84V45.87l7.65-.37A75.88,75.88,0,0,1,172,59.06h.13c3.21-7.52,10.11-13.92,22.07-13.92C210.57,45.14,221.91,57.09,221.91,75.1Zm-11.1,0c0-12.46-7.15-20.85-18.61-20.85-12.35,0-18.51,11-18.51,19.61V76.2c0,8.76,5.8,19.5,19.24,19.5C203.78,95.7,210.81,87.43,210.81,75.1Z"/><path d="M243.53,77.93c1.11,10.74,8.39,17.77,20,17.77,8.88,0,13.94-4.2,16.53-7.66l6.66,6c-5.43,7.16-14.06,10.73-24.05,10.73-18.62,0-30.34-12-30.34-29.72,0-17.39,11.22-30,28.86-30,17.14,0,26.51,12,26.51,27.25a26.72,26.72,0,0,1-.49,5.54Zm.25-7.76h32.81c-.13-9.62-6.17-15.92-15.42-15.92S245.39,60.79,243.78,70.17Z"/><path d="M334.22,46.12l-2.71,11a10.33,10.33,0,0,0-5.44-1.35c-6.53,0-13.93,5.79-13.93,17.88v30.46H301.29V45.87l7.64-.37a78.66,78.66,0,0,1,1.49,13.56h.49c2.22-7.64,7.15-13.92,15.79-13.92A29,29,0,0,1,334.22,46.12Z"/><path d="M392,65a17.87,17.87,0,0,1-.37,3.94l-10.12.75a17.23,17.23,0,0,0,.26-3.09c0-7.16-5.19-12.34-13.94-12.34-11,0-18.38,8.27-18.38,20.85,0,12.33,7,20.6,19.36,20.6,11,0,15.67-5.07,17.89-7.78l6.4,6.91c-5.42,6.54-14.18,10-24.66,10-18.13,0-30.09-12-30.09-29.48,0-17.75,12.08-30.2,29.23-30.2C382.46,45.14,392,53.89,392,65Z"/><path d="M406.18,17H417v87.07H406.18Z"/><path d="M440.35,34.28A7.27,7.27,0,0,1,432.83,27a7.37,7.37,0,0,1,7.52-7.4A7.48,7.48,0,0,1,448,27,7.37,7.37,0,0,1,440.35,34.28Zm-5.79,11.59,11-.37v58.58h-11Z"/><path d="M522,75.1c0,17.88-11.34,29.72-28.36,29.72-9.13,0-15.91-4.31-19.86-10.36v34.78H462.93V45.87l7.65-.37a75.88,75.88,0,0,1,1.47,13.56h.13c3.21-7.52,10.11-13.92,22.07-13.92C510.66,45.14,522,57.09,522,75.1Zm-11.1,0c0-12.46-7.15-20.85-18.61-20.85-12.35,0-18.51,11-18.51,19.61V76.2c0,8.76,5.8,19.5,19.24,19.5C503.87,95.7,510.9,87.43,510.9,75.1Z"/></svg>